<svg width="32" height="31" fill="none" xmlns="http://www.w3.org/2000/svg"><path fill-rule="evenodd" clip-rule="evenodd" d="M21.911 18.017h-9.84l-2.114-7.722h15.83l-3.876 7.722zm6.07-9.076a2.568 2.568 0 00-2.196-1.22H9.25L8.455 4.81a1.292 1.292 0 00-1.247-.948H4.625c-.715 0-1.292.576-1.292 1.286 0 .71.577 1.287 1.292 1.287H6.22l3.616 13.208c.153.56.664.948 1.246.948h11.625c.49 0 .937-.275 1.156-.711l4.232-8.433a2.55 2.55 0 00-.114-2.505zM10.438 23.164c-1.069 0-1.937.863-1.937 1.93s.868 1.93 1.938 1.93c1.069 0 1.937-.863 1.937-1.93s-.868-1.93-1.938-1.93zm10.98 1.93c0-1.067.868-1.93 1.937-1.93 1.07 0 1.938.863 1.938 1.93s-.868 1.93-1.938 1.93a1.934 1.934 0 01-1.937-1.93z" fill="#000"/><mask id="mask0" maskUnits="userSpaceOnUse" x="3" y="3" width="26" height="25"><path fill-rule="evenodd" clip-rule="evenodd" d="M21.911 18.017h-9.84l-2.114-7.722h15.83l-3.876 7.722zm6.07-9.076a2.568 2.568 0 00-2.196-1.22H9.25L8.455 4.81a1.292 1.292 0 00-1.247-.948H4.625c-.715 0-1.292.576-1.292 1.286 0 .71.577 1.287 1.292 1.287H6.22l3.616 13.208c.153.56.664.948 1.246.948h11.625c.49 0 .937-.275 1.156-.711l4.232-8.433a2.55 2.55 0 00-.114-2.505zM10.438 23.164c-1.069 0-1.937.863-1.937 1.93s.868 1.93 1.938 1.93c1.069 0 1.937-.863 1.937-1.93s-.868-1.93-1.938-1.93zm10.98 1.93c0-1.067.868-1.93 1.937-1.93 1.07 0 1.938.863 1.938 1.93s-.868 1.93-1.938 1.93a1.934 1.934 0 01-1.937-1.93z" fill="#fff"/></mask><g mask="url(#mask0)"><path fill="#00AC4E" d="M.75 0h31v30.886h-31z"/></g></svg>