<svg width="38" height="44" fill="none" xmlns="http://www.w3.org/2000/svg"><path d="M11.025 21.871c6.02 0 10.903-4.883 10.903-10.903 0-6.02-4.883-10.912-10.903-10.912C5.005.056.122 4.939.122 10.959c0 6.02 4.883 10.912 10.903 10.912zm-3.809-6.598c.1-.36.199-.713.307-1.074.127-.415.244-.46.623-.262.65.334 1.336.524 2.058.614.46.054.92.01 1.345-.18.803-.352.93-1.282.252-1.842a3.29 3.29 0 00-.767-.45c-.704-.308-1.435-.543-2.103-.94-1.074-.64-1.76-1.534-1.679-2.843.09-1.48.93-2.41 2.284-2.897.56-.208.56-.199.569-.785v-.596c.009-.442.09-.514.523-.532h.406c.939 0 .939 0 .939.938 0 .66 0 .668.659.767.505.082.984.226 1.453.434.262.117.352.298.28.568-.118.406-.226.813-.361 1.21-.127.379-.244.433-.605.261a4.64 4.64 0 00-2.31-.46 1.589 1.589 0 00-.614.127c-.695.306-.813 1.074-.217 1.552.298.244.64.415 1.002.56.614.252 1.236.505 1.832.83 1.868 1.038 2.374 3.385 1.056 4.982a3.51 3.51 0 01-1.823 1.164c-.316.09-.46.253-.442.578.018.325 0 .64 0 .966 0 .289-.145.442-.434.451-.343.01-.695.01-1.038 0-.306-.009-.45-.18-.45-.478 0-.235 0-.47-.01-.704-.009-.515-.018-.542-.523-.623-.641-.1-1.264-.244-1.85-.533-.443-.207-.488-.325-.362-.803z" fill="#00AC4E"/><path d="M35.485 22.782h-1.273c-.839-2.572-2.482-4.856-4.675-6.625 0-.08-.018-.171-.036-.252-.46-1.616.108-3.087.767-4.143.46-.74-.135-1.688-1.002-1.58-1.94.244-3.276.957-4.197 1.76a4.077 4.077 0 00-1.281 2.112c-1.39 5.759-6.58 10.046-12.763 10.046-3.005 0-5.767-1.01-7.978-2.708a12.763 12.763 0 00-.813 8.421 13.027 13.027 0 001.083 2.88c.623 1.344 1.526 2.915 2.771 4.188 1.796 1.85 2.103 4.142 2.148 5.135v.488a.945.945 0 00.94.875h5.703a.938.938 0 00.94-.939v-1.408c.83.109 1.678.172 2.535.172.677 0 1.336-.036 1.995-.108v1.344c0 .515.415.939.939.939h5.722a.938.938 0 00.939-.939v-1.408c.009-.469.171-2.337 1.94-3.935l.19-.162c.018-.018.036-.027.054-.046 1.967-1.75 3.42-3.935 4.17-6.372h1.2c.957 0 1.733-.776 1.733-1.733v-4.269a1.76 1.76 0 00-1.75-1.733zm-7.14.307a1.414 1.414 0 01-1.416-1.417c0-.785.632-1.417 1.417-1.417s1.417.632 1.417 1.417-.632 1.417-1.417 1.417z" fill="#00AC4E"/></svg>