<svg viewBox="0 0 206 127" xmlns="http://www.w3.org/2000/svg" xmlns:xlink="http://www.w3.org/1999/xlink"><style>:root&gt;svg{display:none}:root&gt;svg:target{display:block}</style><svg fill="none" viewBox="0 0 14 24" id="Arrow" xmlns="http://www.w3.org/2000/svg"><path d="M13.06 13.06a1.5 1.5 0 000-2.12L3.516 1.392a1.5 1.5 0 10-2.122 2.122L9.88 12l-8.486 8.485a1.5 1.5 0 102.122 2.122l9.546-9.546zM11 13.5h1v-3h-1v3z" fill="#00AC4E"/></svg><svg fill="none" viewBox="0 0 17 16" id="Vector1" xmlns="http://www.w3.org/2000/svg"><path d="M15.33 7.268H.793a.727.727 0 00-.727.727A7.997 7.997 0 003.868 14.8a.727.727 0 00.56 1.19h7.268a.727.727 0 00.559-1.19 7.997 7.997 0 003.802-6.805.727.727 0 00-.727-.727z" fill="#333"/><path d="M13.559 8.417H2.846a.525.525 0 00-.535.514c0 2.033 1.121 3.818 2.801 4.816a.5.5 0 00-.123.328c0 .284.24.514.535.514h5.357c.296 0 .535-.23.535-.514a.5.5 0 00-.123-.328c1.68-.998 2.802-2.783 2.802-4.816a.525.525 0 00-.536-.514z" fill="#fff"/><path d="M5.183.213a.727.727 0 00-1.028 0c-.396.397-.94.94-.94 1.967 0 1.028.544 1.572.94 1.968.357.357.514.531.514.94a.727.727 0 001.454 0c0-1.028-.543-1.571-.94-1.968-.356-.356-.514-.53-.514-.94 0-.408.158-.583.514-.94a.727.727 0 000-1.027zm3.392 0a.727.727 0 00-1.028 0c-.396.396-.94.94-.94 1.967 0 1.028.544 1.572.94 1.968.357.357.514.531.514.94a.727.727 0 001.454 0c0-1.028-.543-1.571-.94-1.968-.356-.356-.514-.53-.514-.94 0-.408.158-.583.514-.94a.727.727 0 000-1.027zm3.392 0a.727.727 0 00-1.028 0c-.396.396-.94.94-.94 1.967 0 1.028.544 1.572.94 1.968.357.357.514.531.514.94a.727.727 0 101.454 0c0-1.028-.543-1.571-.94-1.968-.356-.356-.514-.53-.514-.94 0-.408.158-.583.514-.94a.727.727 0 000-1.027z" fill="#333"/></svg><svg fill="none" viewBox="0 0 11 19" id="Vector10" xmlns="http://www.w3.org/2000/svg"><path d="M9.62 4.484H8.345l.632-3.022a.415.415 0 10-.813-.17l-.667 3.192H.877a.415.415 0 00-.414.431l.514 13.32a.415.415 0 00.415.4h7.714a.415.415 0 00.415-.4l.514-13.32a.415.415 0 00-.414-.431zM1.38 7.16l-.071-1.846h6.013L6.936 7.16H1.38zm7.327 10.645H1.791L1.412 7.99h7.674l-.379 9.815zM9.118 7.16H7.784l.386-1.846h1.02L9.117 7.16z" fill="#333"/></svg><svg fill="none" viewBox="0 0 18 16" id="Vector11" xmlns="http://www.w3.org/2000/svg"><path d="M13.495 4.55c-.379-.353-.71-.865-1.06-1.407-.408-.63-.83-1.281-1.394-1.797-.684-.627-1.45-.931-2.34-.931-.89 0-1.656.304-2.34.93-.564.517-.986 1.168-1.393 1.798-.351.542-.682 1.054-1.06 1.408C2.47 5.895.065 8.146.065 11.279c0 1.645.77 2.849 2.287 3.58 1.384.665 3.4.976 6.348.976 2.947 0 4.964-.31 6.348-.977 1.518-.73 2.287-1.934 2.287-3.579 0-3.133-2.405-5.384-3.841-6.728zm1.071 9.277c-1.21.583-3.129.866-5.865.866s-4.654-.283-5.865-.866c-1.137-.547-1.644-1.333-1.644-2.548 0-2.634 2.094-4.593 3.48-5.89.48-.449.865-1.044 1.237-1.62.369-.57.75-1.158 1.207-1.576.474-.434.978-.636 1.585-.636s1.111.202 1.585.636c.457.418.838 1.007 1.207 1.577.372.575.758 1.17 1.238 1.62 1.385 1.296 3.479 3.255 3.479 5.89 0 1.214-.507 2-1.644 2.547z" fill="#333"/><path d="M7.782 4.897L7.11 3.98c-.471.354-.557 1.095-.676 2.122-.146 1.258-.328 2.824-1.23 3.72l.79.815c1.184-1.179 1.4-3.042 1.558-4.402.06-.51.14-1.21.254-1.362 0 0-.008.01-.025.024zm3.185 1.205c-.119-1.027-.205-1.768-.676-2.122l-.67.917c-.018-.014-.026-.024-.026-.024.113.152.194.851.254 1.362.158 1.36.374 3.223 1.558 4.402l.79-.814c-.902-.897-1.084-2.463-1.23-3.721z" fill="#333"/></svg><svg fill="none" viewBox="0 0 17 11" id="Vector2" xmlns="http://www.w3.org/2000/svg"><path d="M16.058 7.04a10.575 10.575 0 00-1.769-2.432 2.731 2.731 0 00-.68-1.52 4.107 4.107 0 00-2.497-1.302c-.007-.01-.01-.02-.017-.03A1.86 1.86 0 009.58.98H6.857a1.86 1.86 0 00-1.515.775c-.007.01-.01.02-.017.03A4.106 4.106 0 002.828 3.09a2.73 2.73 0 00-.68 1.517A10.524 10.524 0 00.396 7.01a2.356 2.356 0 00.03 2.454c.429.685 1.236 1.09 2.052 1.09.28 0 .562-.047.83-.148l2.584-1.034c.329.104.67.168 1.019.168.062 0 .125-.015.187-.018a1.47 1.47 0 002.246 0c.059.003.118.017.176.017.347 0 .687-.065 1.018-.17l2.61 1.044c.268.098.547.144.824.144.812 0 1.607-.402 2.039-1.093a2.34 2.34 0 00.047-2.423zm-9.941.976a2.061 2.061 0 01-.209-.105 1.828 1.828 0 01-.217-.14c-.039-.03-.08-.054-.117-.086l-.265-.275-1.447-1.508c-.041-.044-.074-.092-.11-.14-.017-.024-.04-.046-.056-.07-.024-.04-.041-.082-.062-.122-.02-.038-.043-.074-.058-.114-.014-.037-.023-.075-.033-.113-.015-.047-.032-.093-.04-.142-.007-.03-.007-.061-.01-.093a1.265 1.265 0 01-.015-.175c.001-.334.118-.668.357-.932a2.723 2.723 0 011.158-.752c.012.068.03.135.05.202.007.026.007.052.015.077l1.47 4.619a2.03 2.03 0 01-.411-.13zm6.828-2.908c-.004.032-.004.063-.01.093-.01.05-.026.096-.04.143-.012.037-.02.075-.034.112-.017.043-.041.082-.062.123-.02.037-.035.076-.058.112a1.38 1.38 0 01-.166.21l-1.7 1.773c-.12.104-.252.186-.39.259-.038.02-.077.041-.117.06a2.05 2.05 0 01-.456.15l1.467-4.615c.008-.025.008-.05.014-.074.02-.068.04-.136.05-.205.442.147.845.405 1.159.752.239.264.356.598.357.932 0 .06-.007.118-.014.175z" fill="#333"/></svg><svg fill="none" viewBox="0 0 18 18" id="Vector3" xmlns="http://www.w3.org/2000/svg"><path d="M14.625 3.064A8.472 8.472 0 008.595.566c-2.279 0-4.42.887-6.031 2.498a8.472 8.472 0 00-2.498 6.03c0 2.267.88 4.401 2.477 6.01a.296.296 0 10.42-.418A7.886 7.886 0 01.658 9.094c0-4.376 3.56-7.936 7.936-7.936 4.376 0 7.936 3.56 7.936 7.936 0 4.376-3.56 7.936-7.936 7.936a7.85 7.85 0 01-4.946-1.73.296.296 0 00-.37.464 8.438 8.438 0 005.316 1.858c2.278 0 4.42-.887 6.03-2.497a8.472 8.472 0 002.499-6.03c0-2.279-.888-4.42-2.498-6.031z" fill="#333"/><path d="M13.793 7.045a5.584 5.584 0 00-.56-1.065.296.296 0 10-.492.33c.2.299.369.619.5.952a.296.296 0 00.552-.217zm-2.867 6.809a.296.296 0 00-.388-.158 5 5 0 01-6.747-5.975.296.296 0 10-.57-.163 5.593 5.593 0 007.547 6.683.296.296 0 00.158-.387zM12.67 3.406c-.171-.295-.443-.417-.633-.483a.296.296 0 00-.164-.01l-.023.006a.852.852 0 01-.884-.333.296.296 0 00-.134-.104c-.184-.07-.466-.152-.78-.04a2.175 2.175 0 00-1.398 1.573 2.908 2.908 0 00-.408-.42 1.142 1.142 0 00-1.373-.088l-.115.075a.653.653 0 01-.725-.009l-.068-.047a1.145 1.145 0 00-1.377.054 2.862 2.862 0 00-.631.73.296.296 0 00.507.307 2.275 2.275 0 01.526-.6.553.553 0 01.64-.001l.07.047c.415.283.957.29 1.38.017l.115-.075a.55.55 0 01.67.044c.555.466.849 1.149.807 1.874a2.287 2.287 0 01-2.158 2.13 2.251 2.251 0 01-1.673-.626 2.249 2.249 0 01-.702-1.64c0-.15.015-.299.044-.444a.296.296 0 00-.581-.115 2.885 2.885 0 00-.055.559c0 .789.314 1.523.885 2.068a2.835 2.835 0 002.11.789 2.851 2.851 0 001.873-.824 2.85 2.85 0 00.84-1.763 2.176 2.176 0 002.436.42c.492-.225.88-.621 1.092-1.114a2.166 2.166 0 00-.114-1.957zm-.43 1.723a1.602 1.602 0 01-1.93.886 1.578 1.578 0 01-.953-.812 1.575 1.575 0 01-.07-1.248A1.59 1.59 0 0110.249 3a.363.363 0 01.124-.021c.052 0 .107.01.173.03a1.44 1.44 0 001.37.5.46.46 0 01.24.193c.254.44.284.96.083 1.427zm2.798 4.517a1.774 1.774 0 00-2.745-1.603 1.319 1.319 0 00-.988-.127 1.33 1.33 0 00-.389 2.396l-.01.161c-.03.52-.061 1.059-.62 2.017a.296.296 0 00.105.405l1.354.79a.295.295 0 00.405-.105c.433-.74.8-1.069 1.07-1.272a.296.296 0 00-.355-.474c-.405.304-.743.679-1.072 1.194l-.852-.498c.49-.924.527-1.523.555-2.012.1.011.2.011.301 0a1.769 1.769 0 001.329.776 1.331 1.331 0 001.222.816 1.329 1.329 0 00.69-2.464zm-.053 1.507a.736.736 0 01-1.353-.215.296.296 0 00-.305-.232 1.177 1.177 0 01-1.117-.653.296.296 0 00-.352-.151.736.736 0 11.254-1.267.296.296 0 00.383-.004 1.182 1.182 0 011.931 1.129.296.296 0 00.185.335.736.736 0 01.374 1.058z" fill="#333"/><path d="M8.458 11.934a.296.296 0 100-.593.296.296 0 000 .593zm-.616-1.185a.296.296 0 100-.592.296.296 0 000 .592zm-.84 1.066a.296.296 0 100-.593.296.296 0 000 .593zm-.85.415a.296.296 0 100-.593.296.296 0 000 .592zm-.477-1.067a.296.296 0 100-.592.296.296 0 000 .592zm1.007-.533a.296.296 0 100-.592.296.296 0 000 .592zm.32-1.066a.296.296 0 100-.592.296.296 0 000 .592zm-1.386.533a.296.296 0 100-.592.296.296 0 000 .592z" fill="#333"/></svg><svg fill="none" viewBox="0 0 17 19" id="Vector4" xmlns="http://www.w3.org/2000/svg"><path d="M7.668 4.267l-.306-.246a.487.487 0 01.01-.77 1.73 1.73 0 00.687-1.342 1.73 1.73 0 00-.62-1.373.625.625 0 10-.804.956.482.482 0 01.175.387.481.481 0 01-.193.377 1.728 1.728 0 00-.687 1.36c-.007.54.23 1.042.65 1.379l.306.246a.622.622 0 00.878-.095.625.625 0 00-.096-.879zm2.595.323l-.36-.288a.69.69 0 01-.14-.91.683.683 0 01.155-.164c.47-.357.747-.9.762-1.49A1.921 1.921 0 009.99.213a.625.625 0 10-.803.956c.16.134.248.33.243.539a.678.678 0 01-.27.525 1.919 1.919 0 00-.76 1.511 1.919 1.919 0 00.72 1.532l.36.288a.622.622 0 00.878-.095.625.625 0 00-.095-.878zm2.496-.323l-.307-.246a.488.488 0 01.01-.77 1.73 1.73 0 00.687-1.342 1.73 1.73 0 00-.62-1.373.625.625 0 10-.803.956.481.481 0 01.174.387.481.481 0 01-.193.377 1.728 1.728 0 00-.687 1.36c-.007.54.23 1.042.65 1.379l.306.246a.622.622 0 00.878-.095.625.625 0 00-.095-.879z" fill="#333"/><path d="M16.057 8.789V6.543a.63.63 0 00-.625-.63.652.652 0 00-.534.297H4.106L1.245.717a.626.626 0 00-1.108.58l2.802 5.388v2.104a6.59 6.59 0 003.534 5.838l-1.95 2.918a.625.625 0 001.039.694l.867-1.299 2.465.761v.168a.625.625 0 001.25 0v-.168l2.464-.76.868 1.298a.624.624 0 101.039-.694l-1.96-2.932a6.593 6.593 0 003.502-5.824zM4.189 7.459h10.618V8H4.19v-.54zm4.705 8.935l-1.74-.537.502-.752c.399.117.813.198 1.238.237v1.052zm1.25 0V15.34a6.49 6.49 0 001.233-.242l.507.759-1.74.537zm-.636-2.272h-.005A5.316 5.316 0 014.21 9.25h10.576c-.237 2.748-2.513 4.872-5.278 4.872z" fill="#333"/></svg><svg fill="none" viewBox="0 0 17 10" id="Vector5" xmlns="http://www.w3.org/2000/svg"><path d="M12.92 2.375c0-.54.459-1.017 1.024-1.017.564 0 1.024.44 1.024.98s-.46.98-1.024.98a.533.533 0 00-.545.52c0 .288.244.522.545.522 1.165 0 2.113-.907 2.113-2.022 0-1.115-.948-2.022-2.113-2.022-1.061 0-1.941.751-2.09 1.727-.697.237-1.335.352-1.943.352-1.29 0-2.25-.525-3.268-1.08C6.035.983 5.407.64 4.704.416A4.88 4.88 0 003.221.18C1.41.18.273 1.247.226 1.292a.507.507 0 00-.149.474.527.527 0 00.331.379c1.637.626 2.539 1.679 3.41 2.697.867 1.01 1.758 2.049 3.292 2.435-.513.447-1.01 1.105-1.01 1.976 0 .287.244.52.545.52h3.594a.533.533 0 00.543-.558c-.014-.896-.555-1.563-1.087-2.005 1.887-.694 3.223-2.913 3.223-4.835zM7.305 8.732c.244-.543.817-.925 1.136-1.104.317.18.89.563 1.136 1.104H7.306zm3.492-3.613c-.673.822-1.506 1.274-2.345 1.274-1.897 0-2.733-.976-3.792-2.212-.763-.89-1.61-1.88-2.97-2.605a3.49 3.49 0 011.53-.355c.374 0 .757.062 1.139.184.6.191 1.156.494 1.743.815 1.096.598 2.23 1.217 3.807 1.217.592 0 1.198-.087 1.836-.266a4.689 4.689 0 01-.948 1.948z" fill="#333"/></svg><svg fill="none" viewBox="0 0 17 16" id="Vector6" xmlns="http://www.w3.org/2000/svg"><path d="M16.057 7.937a.719.719 0 00-.727-.71h-.066c-.303-1.606-1.612-2.87-3.261-3.144C11.683 2.24 10.037.83 8.06.83c-1.975 0-3.62 1.41-3.94 3.253-1.65.274-2.958 1.538-3.26 3.143H.792a.719.719 0 00-.727.711c0 2.808 1.522 5.274 3.802 6.653a.698.698 0 00-.168.454c0 .392.326.71.727.71h7.268a.719.719 0 00.727-.71.699.699 0 00-.167-.454c2.28-1.379 3.802-3.845 3.802-6.653zM4.79 5.45a.719.719 0 00.726-.711c0-1.372 1.142-2.488 2.544-2.488 1.403 0 2.544 1.116 2.544 2.488 0 .392.326.71.727.71 1.15 0 2.124.751 2.438 1.777h-3.528a.7.7 0 00.145-.995.738.738 0 00-1.017-.142l-.582.427V4.952a.719.719 0 00-.727-.71.719.719 0 00-.727.71v1.564l-.581-.427a.738.738 0 00-1.018.142.7.7 0 00.146.995H2.353A2.541 2.541 0 014.79 5.45zm3.27 8.883c-3.361 0-6.138-2.492-6.501-5.685h13.003c-.363 3.193-3.14 5.685-6.502 5.685z" fill="#333"/></svg><svg fill="none" viewBox="0 0 19 17" id="Vector7" xmlns="http://www.w3.org/2000/svg"><path d="M5.542 5.954a.301.301 0 10.427-.427.788.788 0 010-1.112c.263-.263.408-.612.408-.984 0-.371-.144-.72-.408-.983a.302.302 0 10-.427.427.782.782 0 010 1.113 1.393 1.393 0 000 1.966zm6.646 0a.301.301 0 10.427-.427.788.788 0 010-1.112c.262-.263.407-.612.407-.984 0-.371-.144-.72-.407-.983a.302.302 0 10-.428.427.782.782 0 010 1.113 1.393 1.393 0 000 1.966zM8.865 4.142a.301.301 0 00.427 0 .302.302 0 000-.427.788.788 0 010-1.112c.263-.263.408-.612.408-.984 0-.371-.145-.72-.408-.983a.302.302 0 10-.427.427.782.782 0 010 1.113 1.393 1.393 0 000 1.966zm-1.21 4.17a.315.315 0 00.067-.007 6.084 6.084 0 011.336-.147h.003a.302.302 0 100-.605h-.004c-.496 0-.99.055-1.468.163a.302.302 0 00.066.596zm-4.688 4.976a.302.302 0 00.351-.242c.314-1.722 1.35-3.253 2.774-4.097a.302.302 0 00-.307-.52c-1.572.932-2.716 2.617-3.061 4.507a.301.301 0 00.243.352z" fill="#333"/><path d="M16.8 12.877a7.872 7.872 0 00-6.24-6.387c.005-.048.013-.097.013-.145a1.511 1.511 0 00-3.02 0c0 .048.007.097.012.145a7.872 7.872 0 00-6.242 6.387C.69 13.234 0 13.76 0 14.35c0 1.536 4.685 2.567 9.061 2.567s9.062-1.032 9.062-2.567c0-.59-.69-1.116-1.322-1.473zm-8.643-6.48a.907.907 0 111.81-.052l-.001.052-.043-.003a7.645 7.645 0 00-.313-.027c-.039-.003-.077-.007-.116-.009a7.894 7.894 0 00-.865 0c-.039.002-.077.006-.116.009-.105.007-.21.016-.313.027l-.043.003zm-.183.634a7.36 7.36 0 01.489-.055l.1-.007c.332-.023.665-.023.997 0l.1.007c.164.013.327.031.49.055a7.266 7.266 0 016.121 6.428l.011.1c.012.134.02.268.025.402a32.232 32.232 0 01-14.49 0c.004-.134.012-.268.024-.402l.011-.1A7.264 7.264 0 017.974 7.03zm1.087 9.282c-5.163 0-8.457-1.29-8.457-1.963 0-.116.143-.371.624-.704-.002.018-.001.035-.002.052-.01.165-.018.332-.018.5v.239l.232.056c2.493.598 5.057.897 7.621.897s5.129-.3 7.622-.898l.232-.055v-.238c0-.169-.008-.335-.018-.501-.001-.017 0-.034-.002-.052.48.333.624.588.624.704 0 .674-3.294 1.963-8.458 1.963z" fill="#333"/></svg><svg fill="none" viewBox="0 0 15 17" id="Vector8" xmlns="http://www.w3.org/2000/svg"><path d="M8.778.445C8.405.388 8.033.426 7.661.47c-.01.001-.016.007-.025.008C4.369-.186 1.53 3.352.526 6.237c-1.29 3.7-.22 8.115 3.543 9.66 3.939 1.616 8.073-.97 9.772-4.723 1.928-4.26-.313-10.002-5.063-10.729zm4.509 10.394c-1.43 3.451-5.245 5.827-8.804 4.535C.808 14.04.032 9.857 1.167 6.42a9.152 9.152 0 012.694-4.025c1.237-1.07 2.712-1.363 4.257-1.374 4.618.192 6.867 5.72 5.169 9.818z" fill="#333"/><path d="M9.701 2.454c-.655-.222-1.355-.283-2.04-.27a.237.237 0 00-.136.046c-6.35-.51-8.392 11.343-1.678 12.636 3.308.637 5.966-1.79 6.855-4.942.805-2.855-.02-6.461-3-7.47zM7.055 14.347c-3.217.135-4.974-2.688-4.759-5.755.224-3.185 2.342-5.388 5.25-5.91a.25.25 0 00.115.03c6.954.116 5.592 11.375-.606 11.635z" fill="#333"/><path d="M4.102 10.614c-.061-.002-.088-.042-.134-.077a.223.223 0 00-.14-.046c-.05-.002-.065.087-.012.094.11.016.151.144.27.16.094.014.11-.13.016-.131z" fill="#333"/><path d="M12.049 7.506c-.049-.116-.185-.257-.263-.346-.129-.146-.098-.401-.15-.583-.038-.14-.142-.241-.252-.335.2-.22.252-.52-.031-.885-.122-.158-.504-.381-.545-.575-.04-.186-.058-.321-.172-.472-.19-.253-.777-.1-1.027-.136a.126.126 0 00-.13.067.743.743 0 00-.326-.253.116.116 0 00-.017-.043 2.327 2.327 0 00-1.154-.964c-.054-.022-.135.002-.172.047-.183.224-.2.418-.267.664-.203-.013-.471-.04-.623.072-.14.105-.088.334-.163.482-.01.018-.123.021-.252.037-.003-.03-.02-.06-.055-.069-.506-.13-1.184-.229-1.5.327-.163.29-.138.413-.47.48-.162.033-.257.16-.328.303-.227.457-.973.871-.871 1.466.01.054.027.1.047.144a.465.465 0 00-.176.105c-.158.162-.133.385-.065.586-.225.134-.442.335-.511.598-.078.292.353.343.505.441.122.08.251-.1.152-.204a.962.962 0 00-.14-.12.955.955 0 00-.129-.067.387.387 0 00-.029-.021 1.17 1.17 0 01.424-.414.164.164 0 00.07-.18c-.044-.159-.162-.358.04-.416.043-.013.087-.023.13-.033.239.119.562.12.82.07.023.074.051.148.088.224.049.1.187.108.26.034a.93.93 0 01.253-.174l.004-.001c-.12.214-.245.42-.328.646-.489-.239-1.025-.126-1.244.54-.059.178-.297.324-.403.487a1.08 1.08 0 00-.16.586c0 .324.212.555.473.682a.71.71 0 00-.097.197c-.078.258.044.514.25.659.134.093.29.122.445.109-.053.255-.155.53-.084.776.07.247.35.267.582.25-.043.546.097 1.158.637 1.378.43.175.86-.016 1.155-.348.018.014.035.03.057.041.248.136.53.037.777-.107.055.165.219.295.549.344.697.105.849-.396.73-.897.16.235.411.382.766.341.499-.057.563-.502.827-.827.07-.085.172-.103.235-.202.058-.092.03-.223-.01-.34.388-.016.636-.277.85-.66.035-.061-.008-.164-.085-.155-.12.014-.176.053-.255.154-.213.276-.326.42-.703.382-.08-.009-.154.093-.126.17.09.247.095.277-.083.413-.164.125-.234.382-.37.53-.25.274-.546.24-.79 0-.231-.23-.256-.611-.212-.932.765-.057 1.475-.695 1.774-1.463.07.017.153.012.218.015.146.008.183-.174.114-.266.031-.105-.1-.212-.199-.123-.008.008-.019.013-.028.02a1.767 1.767 0 00-.125-1.144.19.19 0 00.011-.066c-.013-.435.197-.661-.039-1.082-.01-.016-.025-.027-.039-.04.109-.146.228-.253.328-.366-.034.048-.04.112.017.168l.036.027c.022.08-.005.198-.017.265-.019.106-.048.21-.055.318-.005.077.064.135.132.138.228.008.457.006.685.006a.142.142 0 00.139-.144c-.006-.116-.119-.368-.04-.465a.172.172 0 00.035-.141c.005.008.01.016.018.023.508.467.473.987-.108 1.412-.098.071-.125.205-.038.3.24.26.082.51-.06.726-.092-.047-.188-.09-.284-.139-.065-.032-.163-.024-.198.054-.09.205-.11.508-.25.68-.12.145.082.357.203.21.143-.174.178-.4.248-.612.053.026.104.053.154.08.004.137.158.232.265.18.01.008.02.014.029.023-.033.168-.088.341-.277.338-.156-.003-.304-.023-.447.058-.124.07-.04.286.096.238.119-.043.255.013.377.014.156.002.3-.07.392-.202.123-.18.245-.492.073-.663-.026-.027-.055-.047-.083-.07.2-.398.387-.583.138-1.011.423-.366.695-.774.447-1.37zM9.544 6.28c.019-.434.116-.859.161-1.29.159.115.305.25.381.438.105.26.067.578.028.856-.18.036-.347-.016-.536-.007-.013 0-.024.004-.035.007V6.28zM6.84 4.614c.061.007.118-.039.15-.088a.981.981 0 00.17-.474l.001-.008c.154-.033.355-.005.5-.006.08-.001.13-.054.159-.125.046-.117.085-.583.333-.467.284.133.519.337.722.576a.534.534 0 00-.113.086 1.11 1.11 0 00-.294.563c-.02-.05-.069-.09-.122-.09-.235.002-.49-.044-.72.004-.082.017-.111.11-.088.183.036.223-.05.45-.001.668.066.293.449.29.672.291.048 0 .11-.029.13-.077.095-.232.062-.474.094-.709-.017.329.048.675.136.97-.231.105-.586.29-.567.557.019.252.205.393.4.512-.099.027-.198.049-.297.027a.12.12 0 00-.087.013c-.219-.227-.712-.667-1.027-.391a.464.464 0 00-.107.142c-.047-.022-.097-.05-.145-.06.004-.033-.035-.058-.063-.033-.02.019-.031.044-.051.06-.006.005-.008.012-.012.017.107-.445.21-.903.187-1.326-.005-.098-.13-.14-.18-.051a1.96 1.96 0 00-.132.286.06.06 0 00-.059-.031c-.328.023-.73.276-.773.643-.043.348.241.63.532.764-.009.054-.017.109-.027.162-.477-.15-.815-.493-.631-1.064.18-.558.78-.866 1.31-.88.119-.003.155-.203.03-.223a1.681 1.681 0 00-.495 0c.068-.245.01-.468.465-.42zm1.317.249a1.003 1.003 0 00-.026.16c-.01.133.002.263-.03.39a.598.598 0 01-.238-.037c-.038-.017-.034-.025-.036-.077-.007-.146.001-.285-.01-.426.112.004.226-.004.34-.01zm-1.72.939a6.547 6.547 0 00-.211 1.002c-.137-.134-.27-.277-.286-.483-.02-.27.313-.398.497-.519zm-1.875.72c-.113-.026-.237.055-.233.184.003.104.013.202.027.297-.127-.002-.274-.003-.402-.035-.009-.063-.053-.12-.126-.114l-.08.006a.289.289 0 01-.07-.102c-.1-.261.414-.632.567-.756.128-.104.206-.377.283-.529.053-.103.347-.12.444-.144.057-.014.12-.07.13-.133.104-.66.557-.82 1.098-.826a.207.207 0 00-.067.063c-.129.209-.116.466-.13.705-.374.157-.682.46-.841.895-.07.192-.087.372-.064.536-.179-.008-.365-.008-.536-.047zm.17.622a1.328 1.328 0 01-.035-.276c.158-.02.323-.018.479-.028.024.052.052.102.084.15-.17-.026-.366.051-.528.154zm.312.878c.077-.248.2-.463.259-.718.002-.01.001-.019.001-.028.03-.01.06-.024.087-.042a.12.12 0 00.04-.045c.216.205.51.343.817.396.084.014.19-.022.207-.122.036-.2.086-.409.137-.62a.12.12 0 00.032.072c.055.05.12.091.191.124-.015.248.06.53.12.747-.245.217-.536.546-.47.898.062.321.31.45.585.507a1.11 1.11 0 00-.292.36c-.323 0-.605-.008-.934-.164-.123-.058-.226-.11-.26-.206.004-.01.009-.02.012-.032.015-.043.005-.077-.018-.1.002-.01.002-.017.005-.027.043-.167.08-.297.092-.47.007-.1-.089-.197-.184-.191-.124.007-.253.007-.341-.033a1.694 1.694 0 00-.085-.081c-.026-.052-.032-.122 0-.225zM6.1 10.9c-.05.018-.099.04-.149.066-.118-.042-.238-.081-.35-.135-.264-.124-.09-.442-.004-.642.033-.076.02-.16-.052-.206-.209-.135-.369-.252-.181-.48l.009-.012c.394.232.838.452 1.285.414-.02.235.041.477.158.702-.074.008-.156-.006-.222-.012-.107-.008-.198.013-.301.024-.106.011-.198.084-.197.204 0 .027.003.05.004.077zm.39.023l.027-.007c.148-.03.308-.012.442-.077.038.053.08.103.123.152-.218-.004-.348.263-.543.343a.937.937 0 01-.042-.202 2.87 2.87 0 01-.009-.195l.002-.014zm-2.577.006a.396.396 0 01-.196-.06.241.241 0 01-.104-.124c.01.022-.011-.06-.01-.043a.397.397 0 01.002-.066c-.004.042.009-.027.011-.036l.003-.01.007-.014a.638.638 0 01.143-.206c.083-.086.176-.159.272-.227.007.02.02.036.042.04.106.025.199.016.305.01a.305.305 0 01.234.095c-.096.24-.232.464-.46.586a.478.478 0 01-.25.055zm2.135 2.01c-.192.267-.42.491-.782.39-.455-.126-.509-.799-.454-1.182.014-.099-.042-.236-.162-.22-.194.025-.478.11-.467-.166.007-.186.032-.368.034-.554l.047-.019c.345-.152.552-.542.657-.895.013-.045 0-.109-.036-.14-.123-.106-.249-.187-.412-.193a.881.881 0 00-.276.049c.025-.073-.033-.166-.122-.141a1.57 1.57 0 00-.526.241c-.236-.167-.4-.374-.33-.694.07-.319.376-.473.499-.752.108-.247.256-.481.539-.499a.687.687 0 01.367.098 1.389 1.389 0 00-.02.148c-.005.058.037.14.09.163.195.087.37.125.563.149-.039.18-.094.347-.095.54v.003a.927.927 0 00-.204.364c-.057.234.149.41.328.537-.112.246-.217.559-.04.78.105.132.253.189.41.221-.171.152-.298.345-.297.56.003.455.385.643.752.757a1.318 1.318 0 00-.063.456zm1.783.316c-.02-.034-.036-.071-.031-.102a.926.926 0 00.01-.147c.058-.015.056-.113-.012-.113l-.004.002c-.058-.137-.266-.119-.28.057-.01.1.017.201.063.292-.12-.038-.15-.13-.13-.244a.092.092 0 00.015-.058c.067-.225.29-.515.432-.688.178.342.477.931-.063 1.001zm.351-.998a1.328 1.328 0 00-.173-.234c-.064-.068-.155-.02-.174.053-.312.172-.65.539-.745.872a2.18 2.18 0 01-.458.072.224.224 0 01-.148-.043c.042-.086.077-.174.102-.264.036-.134-.069-.212-.171-.201l.014-.088c.013-.08-.019-.157-.099-.181-.237-.07-.761-.265-.615-.616.077-.185.25-.303.42-.414.028.138.074.27.148.408.027.05.09.094.146.087a.796.796 0 00.42-.19c.114-.092.3-.216.363-.352.005-.012.005-.023.007-.035.048.044.096.086.147.124.267.203.548.303.826.323a1.67 1.67 0 00-.01.679zM9.72 8.489c.661 1.413-.926 3.558-2.265 2.209-.4-.404-.365-.759-.118-1.062.237.624.8 1.074 1.48.834.76-.269.954-1.243.772-1.96a.152.152 0 00-.052-.084c.008-.065-.04-.136-.123-.117-.238.053-.48.104-.722.162-.123-.156-.105-.41-.19-.588-.115-.244-.379-.17-.587-.092a.97.97 0 00-.322.19c-.091.087-.087.164-.056.284.025.097.087.18.148.255.05.062.137.12.152.201l.005.012a3.273 3.273 0 00-.56.29c-.002 0-.003-.002-.005-.003-.217-.07-.541-.183-.493-.48.04-.241.275-.432.442-.582.041-.038.054-.106.04-.16-.055-.207-.115-.45-.11-.677a.86.86 0 00.261-.02c.056-.013.081-.063.079-.114.163.1.333.24.37.267a.113.113 0 00.147-.01c.008.005.015.01.026.014.113.032.223.04.34.02.279-.047.446-.115.493.28.011.093.064.158.158.164.283.018.568.012.85.01.065.177.03.341-.013.515-.102-.007-.2.127-.147.242zm-.427.085c0 .007-.002.013 0 .02.084.578.039 1.292-.563 1.553-.546.237-.965-.25-1.194-.71.474-.4 1.277-.69 1.757-.863zm-1.262.09c-.024-.178-.18-.295-.214-.47a1.1 1.1 0 01.48-.223c.101.16.101.377.184.553a5.91 5.91 0 00-.45.14zm1.644-1.355a.206.206 0 00-.03.074c-.166 0-.332.001-.498.008-.059-.198-.137-.38-.347-.45a.353.353 0 00-.105-.015c-.002-.003-.003-.006-.006-.008-.118-.12-.241-.238-.332-.382-.07-.11.419-.367.476-.403.075-.048.09-.137.054-.216a1.92 1.92 0 01-.077-1.355c.167-.525.458-.251.656.06a.15.15 0 00-.039.097c0 .524-.089 1.04-.09 1.562 0 .073.056.106.11.102a.165.165 0 00.06.165c.178.14.46.14.682.08-.05.283-.365.458-.514.681zm.7-2.006c-.13-.307-.384-.503-.651-.674a2.537 2.537 0 00-.117-.208c.422.048.99-.121.893.533-.012.085.008.16.082.209.221.142.409.29.546.522.092.155.067.262-.014.337-.063-.014-.136.025-.15.088-.163.063-.378.08-.51.087.03-.3.039-.616-.079-.894zm.304 2.399c.015-.118.038-.241.035-.358l.062.005c.063.003.176-.016.261-.003-.023.114.004.23.026.352-.128 0-.256.001-.384.004zm.653-.512c-.004-.006-.007-.013-.013-.019-.099-.087-.213-.107-.34-.113-.086-.004-.273.034-.347-.025a.142.142 0 00-.184.003.682.682 0 00.173-.416c.177-.032.356-.094.51-.181.127.16.246.288.197.646a.258.258 0 00.004.105z" fill="#333"/></svg><svg fill="none" viewBox="0 0 13 17" id="Vector9" xmlns="http://www.w3.org/2000/svg"><path d="M12.012 10.43a.334.334 0 00-.262-.127h-.848l.167-.307a1.527 1.527 0 00-.028-1.524 1.527 1.527 0 00-1.324-.754h-.194a1.528 1.528 0 00-.197-1.03A1.527 1.527 0 008 5.932h-.39c.244-.305.391-.692.391-1.112 0-.867-.623-1.59-1.444-1.748.023-.509.191-1.758 1.253-2.258A.334.334 0 107.525.21C6.108.88 5.91 2.448 5.888 3.073A1.783 1.783 0 004.442 4.82c0 .42.147.807.392 1.112h-.421c-.55 0-1.045.282-1.325.754-.189.319-.254.68-.197 1.03h-.194a1.53 1.53 0 00-1.325.755 1.527 1.527 0 00-.027 1.524l.167.306H.664a.334.334 0 00-.325.411l1.411 5.97c.036.15.17.256.325.256h8.264c.155 0 .29-.106.325-.256l1.41-5.97a.332.332 0 00-.062-.284zm-5.79-6.721c.614 0 1.113.499 1.113 1.112a1.114 1.114 0 01-2.225 0c0-.613.499-1.112 1.112-1.112zm-2.56 3.32a.865.865 0 01.751-.428h3.588c.252 0 .483.105.647.286H6.93a.334.334 0 000 .668h1.94a.865.865 0 01-.03.163H3.574a.864.864 0 01.087-.69zM1.947 8.812a.865.865 0 01.75-.427h7.02c.31 0 .591.16.75.427.159.267.165.59.016.863l-.342.626H2.273l-.206-.378h2.125a.334.334 0 000-.668H1.824a.87.87 0 01.123-.443zm.392 7.459L1.086 10.97h2.827l.456 5.302h-2.03zm5.036 0H5.039l-.456-5.302h3.248l-.456 5.302zm2.7 0h-2.03l.456-5.302h2.827l-1.253 5.302z" fill="#333"/></svg><svg fill="none" viewBox="0 0 21 20" id="button-cart" xmlns="http://www.w3.org/2000/svg"><path fill-rule="evenodd" clip-rule="evenodd" d="M15.402 12.118H7.37L5.645 5.792h12.92l-3.163 6.326zm4.955-7.435a2.094 2.094 0 00-1.793-1H5.07l-.65-2.385A1.055 1.055 0 003.401.521H1.294a1.054 1.054 0 100 2.108h1.303l2.95 10.82c.126.459.542.777 1.018.777h9.488c.4 0 .764-.226.943-.583l3.454-6.908a2.093 2.093 0 00-.093-2.052zM6.037 16.335a1.581 1.581 0 100 3.162 1.581 1.581 0 000-3.162zM15 17.916a1.581 1.581 0 113.162 0 1.581 1.581 0 01-3.162 0z" fill="#fff"/></svg><svg fill="none" viewBox="0 0 32 31" id="cart" xmlns="http://www.w3.org/2000/svg"><path fill-rule="evenodd" clip-rule="evenodd" d="M21.911 18.017h-9.84l-2.114-7.722h15.83l-3.876 7.722zm6.07-9.076a2.568 2.568 0 00-2.196-1.22H9.25L8.455 4.81a1.292 1.292 0 00-1.247-.948H4.625c-.715 0-1.292.576-1.292 1.286 0 .71.577 1.287 1.292 1.287H6.22l3.616 13.208c.153.56.664.948 1.246.948h11.625c.49 0 .937-.275 1.156-.711l4.232-8.433a2.55 2.55 0 00-.114-2.505zM10.438 23.164c-1.069 0-1.937.863-1.937 1.93s.868 1.93 1.938 1.93c1.069 0 1.937-.863 1.937-1.93s-.868-1.93-1.938-1.93zm10.98 1.93c0-1.067.868-1.93 1.937-1.93 1.07 0 1.938.863 1.938 1.93s-.868 1.93-1.938 1.93a1.934 1.934 0 01-1.937-1.93z" fill="#000"/><mask id="na" maskUnits="userSpaceOnUse" x="3" y="3" width="26" height="25"><path fill-rule="evenodd" clip-rule="evenodd" d="M21.911 18.017h-9.84l-2.114-7.722h15.83l-3.876 7.722zm6.07-9.076a2.568 2.568 0 00-2.196-1.22H9.25L8.455 4.81a1.292 1.292 0 00-1.247-.948H4.625c-.715 0-1.292.576-1.292 1.286 0 .71.577 1.287 1.292 1.287H6.22l3.616 13.208c.153.56.664.948 1.246.948h11.625c.49 0 .937-.275 1.156-.711l4.232-8.433a2.55 2.55 0 00-.114-2.505zM10.438 23.164c-1.069 0-1.937.863-1.937 1.93s.868 1.93 1.938 1.93c1.069 0 1.937-.863 1.937-1.93s-.868-1.93-1.938-1.93zm10.98 1.93c0-1.067.868-1.93 1.937-1.93 1.07 0 1.938.863 1.938 1.93s-.868 1.93-1.938 1.93a1.934 1.934 0 01-1.937-1.93z" fill="#fff"/></mask><g mask="url(#na)"><path fill="#00AC4E" d="M.75 0h31v30.886h-31z"/></g></svg><svg fill="none" viewBox="0 0 206 127" id="defolt" xmlns="http://www.w3.org/2000/svg"><rect x=".501" y=".938" width="205.499" height="125.834" rx="4.526" fill="url(#opaint0_linear)"/><defs><linearGradient id="opaint0_linear" x1="103.25" y1=".938" x2="103.25" y2="126.772" gradientUnits="userSpaceOnUse"><stop stop-color="#fff"/><stop offset="0" stop-color="#E5E5E5"/><stop offset="1" stop-color="#E6E6E6"/></linearGradient></defs></svg><svg fill="none" viewBox="0 0 31 31" id="person" xmlns="http://www.w3.org/2000/svg"><path fill-rule="evenodd" clip-rule="evenodd" d="M18.083 9.042A2.586 2.586 0 0015.5 6.458a2.586 2.586 0 00-2.583 2.584 2.586 2.586 0 002.583 2.583 2.586 2.586 0 002.583-2.583zm2.584 0a5.172 5.172 0 01-5.167 5.166 5.172 5.172 0 01-5.167-5.166A5.172 5.172 0 0115.5 3.875a5.172 5.172 0 015.167 5.167zM6.458 25.833c0-4.986 4.057-9.041 9.042-9.041 4.985 0 9.042 4.055 9.042 9.041a1.291 1.291 0 11-2.584 0 6.466 6.466 0 00-6.458-6.458 6.466 6.466 0 00-6.458 6.458 1.291 1.291 0 11-2.584 0z" fill="#000"/><mask id="pa" maskUnits="userSpaceOnUse" x="6" y="3" width="19" height="25"><path fill-rule="evenodd" clip-rule="evenodd" d="M18.083 9.042A2.586 2.586 0 0015.5 6.458a2.586 2.586 0 00-2.583 2.584 2.586 2.586 0 002.583 2.583 2.586 2.586 0 002.583-2.583zm2.584 0a5.172 5.172 0 01-5.167 5.166 5.172 5.172 0 01-5.167-5.166A5.172 5.172 0 0115.5 3.875a5.172 5.172 0 015.167 5.167zM6.458 25.833c0-4.986 4.057-9.041 9.042-9.041 4.985 0 9.042 4.055 9.042 9.041a1.291 1.291 0 11-2.584 0 6.466 6.466 0 00-6.458-6.458 6.466 6.466 0 00-6.458 6.458 1.291 1.291 0 11-2.584 0z" fill="#fff"/></mask><g mask="url(#pa)"><path fill="#00AC4E" d="M0 0h31v31H0z"/></g></svg><svg fill="none" viewBox="0 0 35 35" id="person_modal" xmlns="http://www.w3.org/2000/svg"><path fill-rule="evenodd" clip-rule="evenodd" d="M20.276 10.747A2.84 2.84 0 0017.44 7.91a2.84 2.84 0 00-2.838 2.838 2.84 2.84 0 002.838 2.838 2.84 2.84 0 002.837-2.838zm2.838 0a5.681 5.681 0 01-5.675 5.676 5.681 5.681 0 01-5.676-5.676 5.681 5.681 0 015.676-5.675 5.681 5.681 0 015.675 5.675zM7.506 29.193c0-5.477 4.457-9.933 9.932-9.933 5.476 0 9.933 4.456 9.933 9.933a1.418 1.418 0 11-2.838 0 7.103 7.103 0 00-7.095-7.095 7.103 7.103 0 00-7.094 7.095 1.419 1.419 0 11-2.838 0z" fill="#000"/><mask id="qa" maskUnits="userSpaceOnUse" x="7" y="5" width="21" height="26"><path fill-rule="evenodd" clip-rule="evenodd" d="M20.276 10.747A2.84 2.84 0 0017.44 7.91a2.84 2.84 0 00-2.838 2.838 2.84 2.84 0 002.838 2.838 2.84 2.84 0 002.837-2.838zm2.838 0a5.681 5.681 0 01-5.675 5.676 5.681 5.681 0 01-5.676-5.676 5.681 5.681 0 015.676-5.675 5.681 5.681 0 015.675 5.675zM7.506 29.193c0-5.477 4.457-9.933 9.932-9.933 5.476 0 9.933 4.456 9.933 9.933a1.418 1.418 0 11-2.838 0 7.103 7.103 0 00-7.095-7.095 7.103 7.103 0 00-7.094 7.095 1.419 1.419 0 11-2.838 0z" fill="#fff"/></mask><g mask="url(#qa)"><path fill="#C6C6C6" d="M.412.815h34.054v34.054H.412z"/></g></svg><svg fill="none" viewBox="0 0 25 26" id="person_smal" xmlns="http://www.w3.org/2000/svg"><path fill-rule="evenodd" clip-rule="evenodd" d="M14.398 7.827A2.059 2.059 0 0012.34 5.77a2.059 2.059 0 00-2.057 2.057c0 1.134.922 2.056 2.057 2.056a2.059 2.059 0 002.057-2.056zm2.056 0a4.118 4.118 0 01-4.113 4.113 4.118 4.118 0 01-4.114-4.113 4.118 4.118 0 014.114-4.114 4.118 4.118 0 014.113 4.114zM5.142 21.196c0-3.97 3.23-7.2 7.199-7.2 3.968 0 7.199 3.23 7.199 7.2a1.028 1.028 0 11-2.057 0 5.148 5.148 0 00-5.142-5.142 5.148 5.148 0 00-5.142 5.142 1.028 1.028 0 11-2.057 0z" fill="#000"/><mask id="ra" maskUnits="userSpaceOnUse" x="5" y="3" width="15" height="20"><path fill-rule="evenodd" clip-rule="evenodd" d="M14.398 7.827A2.059 2.059 0 0012.34 5.77a2.059 2.059 0 00-2.057 2.057c0 1.134.922 2.056 2.057 2.056a2.059 2.059 0 002.057-2.056zm2.056 0a4.118 4.118 0 01-4.113 4.113 4.118 4.118 0 01-4.114-4.113 4.118 4.118 0 014.114-4.114 4.118 4.118 0 014.113 4.114zM5.142 21.196c0-3.97 3.23-7.2 7.199-7.2 3.968 0 7.199 3.23 7.199 7.2a1.028 1.028 0 11-2.057 0 5.148 5.148 0 00-5.142-5.142 5.148 5.148 0 00-5.142 5.142 1.028 1.028 0 11-2.057 0z" fill="#fff"/></mask><g mask="url(#ra)"><path fill="#fff" d="M0 .628h24.681v24.681H0z"/></g></svg><svg fill="none" viewBox="0 0 17 17" id="phone" xmlns="http://www.w3.org/2000/svg"><path fill-rule="evenodd" clip-rule="evenodd" d="M4.675 2.833a1.843 1.843 0 00-1.842 1.842c0 5.233 4.258 9.492 9.492 9.492a1.844 1.844 0 001.827-2.074l-3.273-.751-.201.386c-.324.616-.557 1.064-1.154.824-2.341-.822-4.253-2.734-5.085-5.104-.253-.557.228-.809.839-1.127l.38-.2-.75-3.273a1.843 1.843 0 00-.233-.015zm7.65 12.75c-6.015 0-10.908-4.893-10.908-10.908A3.262 3.262 0 015.73 1.592a.71.71 0 01.458.512l.97 4.224a.707.707 0 01-.179.65c-.096.1-.098.102-.977.562a7.047 7.047 0 003.456 3.458c.46-.879.463-.881.564-.978a.715.715 0 01.649-.179l4.225.97c.237.054.43.227.51.457a3.23 3.23 0 01.176 1.057 3.262 3.262 0 01-3.258 3.258z" fill="#000"/><mask id="sa" maskUnits="userSpaceOnUse" x="1" y="1" width="15" height="15"><path fill-rule="evenodd" clip-rule="evenodd" d="M4.675 2.833a1.843 1.843 0 00-1.842 1.842c0 5.233 4.258 9.492 9.492 9.492a1.844 1.844 0 001.827-2.074l-3.273-.751-.201.386c-.324.616-.557 1.064-1.154.824-2.341-.822-4.253-2.734-5.085-5.104-.253-.557.228-.809.839-1.127l.38-.2-.75-3.273a1.843 1.843 0 00-.233-.015zm7.65 12.75c-6.015 0-10.908-4.893-10.908-10.908A3.262 3.262 0 015.73 1.592a.71.71 0 01.458.512l.97 4.224a.707.707 0 01-.179.65c-.096.1-.098.102-.977.562a7.047 7.047 0 003.456 3.458c.46-.879.463-.881.564-.978a.715.715 0 01.649-.179l4.225.97c.237.054.43.227.51.457a3.23 3.23 0 01.176 1.057 3.262 3.262 0 01-3.258 3.258z" fill="#fff"/></mask><g mask="url(#sa)"><path fill="#00AC4E" d="M0 0h17v17H0z"/></g></svg><svg fill="none" viewBox="0 0 126 126" id="play" xmlns="http://www.w3.org/2000/svg"><circle opacity=".1" cx="63" cy="63" r="63" fill="#00AC4E"/><circle opacity=".2" cx="63" cy="63" r="53.1" fill="#00AC4E"/><circle opacity=".5" cx="63" cy="63" r="34.2" fill="#00AC4E"/><path d="M69.578 61.966c.83.46.83 1.609 0 2.068l-9.212 5.104c-.829.46-1.866-.115-1.866-1.034V57.896c0-.92 1.037-1.494 1.867-1.034l9.21 5.104z" fill="#fff"/></svg><svg fill="none" viewBox="0 0 38 30" id="prod-delivery-car" xmlns="http://www.w3.org/2000/svg"><path d="M30.888 23.02a3.353 3.353 0 000 6.704 3.354 3.354 0 000-6.705zm-22.567 0a3.353 3.353 0 000 6.704 3.354 3.354 0 000-6.705zM32.777 8.938a1.302 1.302 0 00-1.236-.892h-1.582v5.565h4.366l-1.548-4.673zm4.193 6.756h-7.01v5.324a5.44 5.44 0 016.327 4.772h.245c.718 0 1.301-.583 1.301-1.302v-7.57a1.3 1.3 0 00-.862-1.224z" fill="#00AC4E"/><path d="M27.826 1.891a1.3 1.3 0 00-1.3-1.302H1.422c-.718 0-1.3.583-1.3 1.302v22.597a1.3 1.3 0 001.3 1.302H2.92a5.44 5.44 0 015.399-4.854c2.797 0 5.106 2.13 5.397 4.854H25.49a5.44 5.44 0 012.387-3.937l-.05-19.962z" fill="#00AC4E"/></svg><svg fill="none" viewBox="0 0 38 44" id="prod-delivery-pig" xmlns="http://www.w3.org/2000/svg"><path d="M11.025 21.871c6.02 0 10.903-4.883 10.903-10.903 0-6.02-4.883-10.912-10.903-10.912C5.005.056.122 4.939.122 10.959c0 6.02 4.883 10.912 10.903 10.912zm-3.809-6.598c.1-.36.199-.713.307-1.074.127-.415.244-.46.623-.262.65.334 1.336.524 2.058.614.46.054.92.01 1.345-.18.803-.352.93-1.282.252-1.842a3.29 3.29 0 00-.767-.45c-.704-.308-1.435-.543-2.103-.94-1.074-.64-1.76-1.534-1.679-2.843.09-1.48.93-2.41 2.284-2.897.56-.208.56-.199.569-.785v-.596c.009-.442.09-.514.523-.532h.406c.939 0 .939 0 .939.938 0 .66 0 .668.659.767.505.082.984.226 1.453.434.262.117.352.298.28.568-.118.406-.226.813-.361 1.21-.127.379-.244.433-.605.261a4.64 4.64 0 00-2.31-.46 1.589 1.589 0 00-.614.127c-.695.306-.813 1.074-.217 1.552.298.244.64.415 1.002.56.614.252 1.236.505 1.832.83 1.868 1.038 2.374 3.385 1.056 4.982a3.51 3.51 0 01-1.823 1.164c-.316.09-.46.253-.442.578.018.325 0 .64 0 .966 0 .289-.145.442-.434.451-.343.01-.695.01-1.038 0-.306-.009-.45-.18-.45-.478 0-.235 0-.47-.01-.704-.009-.515-.018-.542-.523-.623-.641-.1-1.264-.244-1.85-.533-.443-.207-.488-.325-.362-.803z" fill="#00AC4E"/><path d="M35.485 22.782h-1.273c-.839-2.572-2.482-4.856-4.675-6.625 0-.08-.018-.171-.036-.252-.46-1.616.108-3.087.767-4.143.46-.74-.135-1.688-1.002-1.58-1.94.244-3.276.957-4.197 1.76a4.077 4.077 0 00-1.281 2.112c-1.39 5.759-6.58 10.046-12.763 10.046-3.005 0-5.767-1.01-7.978-2.708a12.763 12.763 0 00-.813 8.421 13.027 13.027 0 001.083 2.88c.623 1.344 1.526 2.915 2.771 4.188 1.796 1.85 2.103 4.142 2.148 5.135v.488a.945.945 0 00.94.875h5.703a.938.938 0 00.94-.939v-1.408c.83.109 1.678.172 2.535.172.677 0 1.336-.036 1.995-.108v1.344c0 .515.415.939.939.939h5.722a.938.938 0 00.939-.939v-1.408c.009-.469.171-2.337 1.94-3.935l.19-.162c.018-.018.036-.027.054-.046 1.967-1.75 3.42-3.935 4.17-6.372h1.2c.957 0 1.733-.776 1.733-1.733v-4.269a1.76 1.76 0 00-1.75-1.733zm-7.14.307a1.414 1.414 0 01-1.416-1.417c0-.785.632-1.417 1.417-1.417s1.417.632 1.417 1.417-.632 1.417-1.417 1.417z" fill="#00AC4E"/></svg><svg fill="none" viewBox="0 0 39 13" id="review_arrow" xmlns="http://www.w3.org/2000/svg"><path d="M1.691 10.786V2.96h5.535v1.174H2.921v2.013h3.41V7.32h-3.41v2.292h4.417v1.174H1.691zm6.938 0V5.42h1.118v4.305h1.957V5.42h1.118v4.305h1.957V5.42h1.118v4.305h.782v2.404h-1.118v-1.342H8.63zM21.762 9.11l.671.783a2.168 2.168 0 01-.559.503 3.069 3.069 0 01-1.733.503c-.783 0-1.446-.268-1.99-.805-.537-.544-.805-1.208-.805-1.99 0-.783.264-1.443.793-1.98a2.633 2.633 0 011.946-.816c.76 0 1.387.25 1.879.75.5.491.749 1.118.749 1.878 0 .067-.011.201-.034.403l-.022.156H18.52c.067.38.253.7.559.962.305.253.678.38 1.118.38.402 0 .783-.12 1.14-.358.164-.104.306-.227.425-.369zM18.52 7.544h3.019c-.09-.38-.258-.679-.504-.895-.245-.224-.562-.335-.95-.335-.79 0-1.312.41-1.565 1.23zm19.876.346a.559.559 0 000-.79l-3.558-3.558a.56.56 0 00-.79.79l3.162 3.163-3.162 3.163a.56.56 0 00.79.79l3.558-3.557zm-9.104.165h8.71V6.936h-8.71v1.119z" fill="#00AC4E"/></svg><svg fill="none" viewBox="0 0 16 15" id="review_dotted" xmlns="http://www.w3.org/2000/svg"><circle cx="8.049" cy="7.607" r="7.268" fill="#00AC4E"/><path d="M8.366 4.763c-1.742 0-3.16 1.209-3.16 2.695 0 .519.174 1.022.502 1.457-.062.652-.229 1.137-.471 1.366a.096.096 0 00-.02.115.106.106 0 00.11.054c.042-.005 1.033-.14 1.75-.532.407.155.84.234 1.29.234 1.742 0 3.16-1.209 3.16-2.694 0-1.486-1.418-2.695-3.16-2.695z" fill="#fff"/></svg><svg fill="none" viewBox="0 0 35 29" id="subscribe" xmlns="http://www.w3.org/2000/svg"><path fill-rule="evenodd" clip-rule="evenodd" d="M3.37.056h28.26a3.14 3.14 0 013.139 3.14v21.979a3.14 3.14 0 01-3.14 3.14H3.371a3.14 3.14 0 01-3.14-3.14V3.196a3.14 3.14 0 013.14-3.14zm.001 10.39v14.728H31.63V10.446L17.5 17.511 3.371 10.446zm0-3.51L17.501 14 31.63 6.936v-3.74H3.37v3.74z" fill="#00AC4E"/></svg></svg>