<svg width="18" height="16" fill="none" xmlns="http://www.w3.org/2000/svg"><path d="M13.495 4.55c-.379-.353-.71-.865-1.06-1.407-.408-.63-.83-1.281-1.394-1.797-.684-.627-1.45-.931-2.34-.931-.89 0-1.656.304-2.34.93-.564.517-.986 1.168-1.393 1.798-.351.542-.682 1.054-1.06 1.408C2.47 5.895.065 8.146.065 11.279c0 1.645.77 2.849 2.287 3.58 1.384.665 3.4.976 6.348.976 2.947 0 4.964-.31 6.348-.977 1.518-.73 2.287-1.934 2.287-3.579 0-3.133-2.405-5.384-3.841-6.728zm1.071 9.277c-1.21.583-3.129.866-5.865.866s-4.654-.283-5.865-.866c-1.137-.547-1.644-1.333-1.644-2.548 0-2.634 2.094-4.593 3.48-5.89.48-.449.865-1.044 1.237-1.62.369-.57.75-1.158 1.207-1.576.474-.434.978-.636 1.585-.636s1.111.202 1.585.636c.457.418.838 1.007 1.207 1.577.372.575.758 1.17 1.238 1.62 1.385 1.296 3.479 3.255 3.479 5.89 0 1.214-.507 2-1.644 2.547z" fill="#333"/><path d="M7.782 4.897L7.11 3.98c-.471.354-.557 1.095-.676 2.122-.146 1.258-.328 2.824-1.23 3.72l.79.815c1.184-1.179 1.4-3.042 1.558-4.402.06-.51.14-1.21.254-1.362 0 0-.008.01-.025.024zm3.185 1.205c-.119-1.027-.205-1.768-.676-2.122l-.67.917c-.018-.014-.026-.024-.026-.024.113.152.194.851.254 1.362.158 1.36.374 3.223 1.558 4.402l.79-.814c-.902-.897-1.084-2.463-1.23-3.721z" fill="#333"/></svg>