<svg width="18" height="18" fill="none" xmlns="http://www.w3.org/2000/svg"><path d="M14.625 3.064A8.472 8.472 0 008.595.566c-2.279 0-4.42.887-6.031 2.498a8.472 8.472 0 00-2.498 6.03c0 2.267.88 4.401 2.477 6.01a.296.296 0 10.42-.418A7.886 7.886 0 01.658 9.094c0-4.376 3.56-7.936 7.936-7.936 4.376 0 7.936 3.56 7.936 7.936 0 4.376-3.56 7.936-7.936 7.936a7.85 7.85 0 01-4.946-1.73.296.296 0 00-.37.464 8.438 8.438 0 005.316 1.858c2.278 0 4.42-.887 6.03-2.497a8.472 8.472 0 002.499-6.03c0-2.279-.888-4.42-2.498-6.031z" fill="#333"/><path d="M13.793 7.045a5.584 5.584 0 00-.56-1.065.296.296 0 10-.492.33c.2.299.369.619.5.952a.296.296 0 00.552-.217zm-2.867 6.809a.296.296 0 00-.388-.158 5 5 0 01-6.747-5.975.296.296 0 10-.57-.163 5.593 5.593 0 007.547 6.683.296.296 0 00.158-.387zM12.67 3.406c-.171-.295-.443-.417-.633-.483a.296.296 0 00-.164-.01l-.023.006a.852.852 0 01-.884-.333.296.296 0 00-.134-.104c-.184-.07-.466-.152-.78-.04a2.175 2.175 0 00-1.398 1.573 2.908 2.908 0 00-.408-.42 1.142 1.142 0 00-1.373-.088l-.115.075a.653.653 0 01-.725-.009l-.068-.047a1.145 1.145 0 00-1.377.054 2.862 2.862 0 00-.631.73.296.296 0 00.507.307 2.275 2.275 0 01.526-.6.553.553 0 01.64-.001l.07.047c.415.283.957.29 1.38.017l.115-.075a.55.55 0 01.67.044c.555.466.849 1.149.807 1.874a2.287 2.287 0 01-2.158 2.13 2.251 2.251 0 01-1.673-.626 2.249 2.249 0 01-.702-1.64c0-.15.015-.299.044-.444a.296.296 0 00-.581-.115 2.885 2.885 0 00-.055.559c0 .789.314 1.523.885 2.068a2.835 2.835 0 002.11.789 2.851 2.851 0 001.873-.824 2.85 2.85 0 00.84-1.763 2.176 2.176 0 002.436.42c.492-.225.88-.621 1.092-1.114a2.166 2.166 0 00-.114-1.957zm-.43 1.723a1.602 1.602 0 01-1.93.886 1.578 1.578 0 01-.953-.812 1.575 1.575 0 01-.07-1.248A1.59 1.59 0 0110.249 3a.363.363 0 01.124-.021c.052 0 .107.01.173.03a1.44 1.44 0 001.37.5.46.46 0 01.24.193c.254.44.284.96.083 1.427zm2.798 4.517a1.774 1.774 0 00-2.745-1.603 1.319 1.319 0 00-.988-.127 1.33 1.33 0 00-.389 2.396l-.01.161c-.03.52-.061 1.059-.62 2.017a.296.296 0 00.105.405l1.354.79a.295.295 0 00.405-.105c.433-.74.8-1.069 1.07-1.272a.296.296 0 00-.355-.474c-.405.304-.743.679-1.072 1.194l-.852-.498c.49-.924.527-1.523.555-2.012.1.011.2.011.301 0a1.769 1.769 0 001.329.776 1.331 1.331 0 001.222.816 1.329 1.329 0 00.69-2.464zm-.053 1.507a.736.736 0 01-1.353-.215.296.296 0 00-.305-.232 1.177 1.177 0 01-1.117-.653.296.296 0 00-.352-.151.736.736 0 11.254-1.267.296.296 0 00.383-.004 1.182 1.182 0 011.931 1.129.296.296 0 00.185.335.736.736 0 01.374 1.058z" fill="#333"/><path d="M8.458 11.934a.296.296 0 100-.593.296.296 0 000 .593zm-.616-1.185a.296.296 0 100-.592.296.296 0 000 .592zm-.84 1.066a.296.296 0 100-.593.296.296 0 000 .593zm-.85.415a.296.296 0 100-.593.296.296 0 000 .592zm-.477-1.067a.296.296 0 100-.592.296.296 0 000 .592zm1.007-.533a.296.296 0 100-.592.296.296 0 000 .592zm.32-1.066a.296.296 0 100-.592.296.296 0 000 .592zm-1.386.533a.296.296 0 100-.592.296.296 0 000 .592z" fill="#333"/></svg>