<svg width="17" height="19" fill="none" xmlns="http://www.w3.org/2000/svg"><path d="M7.668 4.267l-.306-.246a.487.487 0 01.01-.77 1.73 1.73 0 00.687-1.342 1.73 1.73 0 00-.62-1.373.625.625 0 10-.804.956.482.482 0 01.175.387.481.481 0 01-.193.377 1.728 1.728 0 00-.687 1.36c-.007.54.23 1.042.65 1.379l.306.246a.622.622 0 00.878-.095.625.625 0 00-.096-.879zm2.595.323l-.36-.288a.69.69 0 01-.14-.91.683.683 0 01.155-.164c.47-.357.747-.9.762-1.49A1.921 1.921 0 009.99.213a.625.625 0 10-.803.956c.16.134.248.33.243.539a.678.678 0 01-.27.525 1.919 1.919 0 00-.76 1.511 1.919 1.919 0 00.72 1.532l.36.288a.622.622 0 00.878-.095.625.625 0 00-.095-.878zm2.496-.323l-.307-.246a.488.488 0 01.01-.77 1.73 1.73 0 00.687-1.342 1.73 1.73 0 00-.62-1.373.625.625 0 10-.803.956.481.481 0 01.174.387.481.481 0 01-.193.377 1.728 1.728 0 00-.687 1.36c-.007.54.23 1.042.65 1.379l.306.246a.622.622 0 00.878-.095.625.625 0 00-.095-.879z" fill="#333"/><path d="M16.057 8.789V6.543a.63.63 0 00-.625-.63.652.652 0 00-.534.297H4.106L1.245.717a.626.626 0 00-1.108.58l2.802 5.388v2.104a6.59 6.59 0 003.534 5.838l-1.95 2.918a.625.625 0 001.039.694l.867-1.299 2.465.761v.168a.625.625 0 001.25 0v-.168l2.464-.76.868 1.298a.624.624 0 101.039-.694l-1.96-2.932a6.593 6.593 0 003.502-5.824zM4.189 7.459h10.618V8H4.19v-.54zm4.705 8.935l-1.74-.537.502-.752c.399.117.813.198 1.238.237v1.052zm1.25 0V15.34a6.49 6.49 0 001.233-.242l.507.759-1.74.537zm-.636-2.272h-.005A5.316 5.316 0 014.21 9.25h10.576c-.237 2.748-2.513 4.872-5.278 4.872z" fill="#333"/></svg>