<svg width="17" height="16" fill="none" xmlns="http://www.w3.org/2000/svg"><path d="M16.057 7.937a.719.719 0 00-.727-.71h-.066c-.303-1.606-1.612-2.87-3.261-3.144C11.683 2.24 10.037.83 8.06.83c-1.975 0-3.62 1.41-3.94 3.253-1.65.274-2.958 1.538-3.26 3.143H.792a.719.719 0 00-.727.711c0 2.808 1.522 5.274 3.802 6.653a.698.698 0 00-.168.454c0 .392.326.71.727.71h7.268a.719.719 0 00.727-.71.699.699 0 00-.167-.454c2.28-1.379 3.802-3.845 3.802-6.653zM4.79 5.45a.719.719 0 00.726-.711c0-1.372 1.142-2.488 2.544-2.488 1.403 0 2.544 1.116 2.544 2.488 0 .392.326.71.727.71 1.15 0 2.124.751 2.438 1.777h-3.528a.7.7 0 00.145-.995.738.738 0 00-1.017-.142l-.582.427V4.952a.719.719 0 00-.727-.71.719.719 0 00-.727.71v1.564l-.581-.427a.738.738 0 00-1.018.142.7.7 0 00.146.995H2.353A2.541 2.541 0 014.79 5.45zm3.27 8.883c-3.361 0-6.138-2.492-6.501-5.685h13.003c-.363 3.193-3.14 5.685-6.502 5.685z" fill="#333"/></svg>