<svg width="13" height="17" fill="none" xmlns="http://www.w3.org/2000/svg"><path d="M12.012 10.43a.334.334 0 00-.262-.127h-.848l.167-.307a1.527 1.527 0 00-.028-1.524 1.527 1.527 0 00-1.324-.754h-.194a1.528 1.528 0 00-.197-1.03A1.527 1.527 0 008 5.932h-.39c.244-.305.391-.692.391-1.112 0-.867-.623-1.59-1.444-1.748.023-.509.191-1.758 1.253-2.258A.334.334 0 107.525.21C6.108.88 5.91 2.448 5.888 3.073A1.783 1.783 0 004.442 4.82c0 .42.147.807.392 1.112h-.421c-.55 0-1.045.282-1.325.754-.189.319-.254.68-.197 1.03h-.194a1.53 1.53 0 00-1.325.755 1.527 1.527 0 00-.027 1.524l.167.306H.664a.334.334 0 00-.325.411l1.411 5.97c.036.15.17.256.325.256h8.264c.155 0 .29-.106.325-.256l1.41-5.97a.332.332 0 00-.062-.284zm-5.79-6.721c.614 0 1.113.499 1.113 1.112a1.114 1.114 0 01-2.225 0c0-.613.499-1.112 1.112-1.112zm-2.56 3.32a.865.865 0 01.751-.428h3.588c.252 0 .483.105.647.286H6.93a.334.334 0 000 .668h1.94a.865.865 0 01-.03.163H3.574a.864.864 0 01.087-.69zM1.947 8.812a.865.865 0 01.75-.427h7.02c.31 0 .591.16.75.427.159.267.165.59.016.863l-.342.626H2.273l-.206-.378h2.125a.334.334 0 000-.668H1.824a.87.87 0 01.123-.443zm.392 7.459L1.086 10.97h2.827l.456 5.302h-2.03zm5.036 0H5.039l-.456-5.302h3.248l-.456 5.302zm2.7 0h-2.03l.456-5.302h2.827l-1.253 5.302z" fill="#333"/></svg>