<svg width="17" height="10" fill="none" xmlns="http://www.w3.org/2000/svg"><path d="M12.92 2.375c0-.54.459-1.017 1.024-1.017.564 0 1.024.44 1.024.98s-.46.98-1.024.98a.533.533 0 00-.545.52c0 .288.244.522.545.522 1.165 0 2.113-.907 2.113-2.022 0-1.115-.948-2.022-2.113-2.022-1.061 0-1.941.751-2.09 1.727-.697.237-1.335.352-1.943.352-1.29 0-2.25-.525-3.268-1.08C6.035.983 5.407.64 4.704.416A4.88 4.88 0 003.221.18C1.41.18.273 1.247.226 1.292a.507.507 0 00-.149.474.527.527 0 00.331.379c1.637.626 2.539 1.679 3.41 2.697.867 1.01 1.758 2.049 3.292 2.435-.513.447-1.01 1.105-1.01 1.976 0 .287.244.52.545.52h3.594a.533.533 0 00.543-.558c-.014-.896-.555-1.563-1.087-2.005 1.887-.694 3.223-2.913 3.223-4.835zM7.305 8.732c.244-.543.817-.925 1.136-1.104.317.18.89.563 1.136 1.104H7.306zm3.492-3.613c-.673.822-1.506 1.274-2.345 1.274-1.897 0-2.733-.976-3.792-2.212-.763-.89-1.61-1.88-2.97-2.605a3.49 3.49 0 011.53-.355c.374 0 .757.062 1.139.184.6.191 1.156.494 1.743.815 1.096.598 2.23 1.217 3.807 1.217.592 0 1.198-.087 1.836-.266a4.689 4.689 0 01-.948 1.948z" fill="#333"/></svg>