<svg width="21" height="20" fill="none" xmlns="http://www.w3.org/2000/svg"><path fill-rule="evenodd" clip-rule="evenodd" d="M15.402 12.118H7.37L5.645 5.792h12.92l-3.163 6.326zm4.955-7.435a2.094 2.094 0 00-1.793-1H5.07l-.65-2.385A1.055 1.055 0 003.401.521H1.294a1.054 1.054 0 100 2.108h1.303l2.95 10.82c.126.459.542.777 1.018.777h9.488c.4 0 .764-.226.943-.583l3.454-6.908a2.093 2.093 0 00-.093-2.052zM6.037 16.335a1.581 1.581 0 100 3.162 1.581 1.581 0 000-3.162zM15 17.916a1.581 1.581 0 113.162 0 1.581 1.581 0 01-3.162 0z" fill="#fff"/></svg>