<svg width="31" height="31" fill="none" xmlns="http://www.w3.org/2000/svg"><path fill-rule="evenodd" clip-rule="evenodd" d="M18.083 9.042A2.586 2.586 0 0015.5 6.458a2.586 2.586 0 00-2.583 2.584 2.586 2.586 0 002.583 2.583 2.586 2.586 0 002.583-2.583zm2.584 0a5.172 5.172 0 01-5.167 5.166 5.172 5.172 0 01-5.167-5.166A5.172 5.172 0 0115.5 3.875a5.172 5.172 0 015.167 5.167zM6.458 25.833c0-4.986 4.057-9.041 9.042-9.041 4.985 0 9.042 4.055 9.042 9.041a1.291 1.291 0 11-2.584 0 6.466 6.466 0 00-6.458-6.458 6.466 6.466 0 00-6.458 6.458 1.291 1.291 0 11-2.584 0z" fill="#000"/><mask id="mask0" maskUnits="userSpaceOnUse" x="6" y="3" width="19" height="25"><path fill-rule="evenodd" clip-rule="evenodd" d="M18.083 9.042A2.586 2.586 0 0015.5 6.458a2.586 2.586 0 00-2.583 2.584 2.586 2.586 0 002.583 2.583 2.586 2.586 0 002.583-2.583zm2.584 0a5.172 5.172 0 01-5.167 5.166 5.172 5.172 0 01-5.167-5.166A5.172 5.172 0 0115.5 3.875a5.172 5.172 0 015.167 5.167zM6.458 25.833c0-4.986 4.057-9.041 9.042-9.041 4.985 0 9.042 4.055 9.042 9.041a1.291 1.291 0 11-2.584 0 6.466 6.466 0 00-6.458-6.458 6.466 6.466 0 00-6.458 6.458 1.291 1.291 0 11-2.584 0z" fill="#fff"/></mask><g mask="url(#mask0)"><path fill="#00AC4E" d="M0 0h31v31H0z"/></g></svg>