<svg width="25" height="26" fill="none" xmlns="http://www.w3.org/2000/svg"><path fill-rule="evenodd" clip-rule="evenodd" d="M14.398 7.827A2.059 2.059 0 0012.34 5.77a2.059 2.059 0 00-2.057 2.057c0 1.134.922 2.056 2.057 2.056a2.059 2.059 0 002.057-2.056zm2.056 0a4.118 4.118 0 01-4.113 4.113 4.118 4.118 0 01-4.114-4.113 4.118 4.118 0 014.114-4.114 4.118 4.118 0 014.113 4.114zM5.142 21.196c0-3.97 3.23-7.2 7.199-7.2 3.968 0 7.199 3.23 7.199 7.2a1.028 1.028 0 11-2.057 0 5.148 5.148 0 00-5.142-5.142 5.148 5.148 0 00-5.142 5.142 1.028 1.028 0 11-2.057 0z" fill="#000"/><mask id="mask0" maskUnits="userSpaceOnUse" x="5" y="3" width="15" height="20"><path fill-rule="evenodd" clip-rule="evenodd" d="M14.398 7.827A2.059 2.059 0 0012.34 5.77a2.059 2.059 0 00-2.057 2.057c0 1.134.922 2.056 2.057 2.056a2.059 2.059 0 002.057-2.056zm2.056 0a4.118 4.118 0 01-4.113 4.113 4.118 4.118 0 01-4.114-4.113 4.118 4.118 0 014.114-4.114 4.118 4.118 0 014.113 4.114zM5.142 21.196c0-3.97 3.23-7.2 7.199-7.2 3.968 0 7.199 3.23 7.199 7.2a1.028 1.028 0 11-2.057 0 5.148 5.148 0 00-5.142-5.142 5.148 5.148 0 00-5.142 5.142 1.028 1.028 0 11-2.057 0z" fill="#fff"/></mask><g mask="url(#mask0)"><path fill="#fff" d="M0 .628h24.681v24.681H0z"/></g></svg>