<svg width="35" height="35" fill="none" xmlns="http://www.w3.org/2000/svg"><path fill-rule="evenodd" clip-rule="evenodd" d="M20.276 10.747A2.84 2.84 0 0017.44 7.91a2.84 2.84 0 00-2.838 2.838 2.84 2.84 0 002.838 2.838 2.84 2.84 0 002.837-2.838zm2.838 0a5.681 5.681 0 01-5.675 5.676 5.681 5.681 0 01-5.676-5.676 5.681 5.681 0 015.676-5.675 5.681 5.681 0 015.675 5.675zM7.506 29.193c0-5.477 4.457-9.933 9.932-9.933 5.476 0 9.933 4.456 9.933 9.933a1.418 1.418 0 11-2.838 0 7.103 7.103 0 00-7.095-7.095 7.103 7.103 0 00-7.094 7.095 1.419 1.419 0 11-2.838 0z" fill="#000"/><mask id="mask0" maskUnits="userSpaceOnUse" x="7" y="5" width="21" height="26"><path fill-rule="evenodd" clip-rule="evenodd" d="M20.276 10.747A2.84 2.84 0 0017.44 7.91a2.84 2.84 0 00-2.838 2.838 2.84 2.84 0 002.838 2.838 2.84 2.84 0 002.837-2.838zm2.838 0a5.681 5.681 0 01-5.675 5.676 5.681 5.681 0 01-5.676-5.676 5.681 5.681 0 015.676-5.675 5.681 5.681 0 015.675 5.675zM7.506 29.193c0-5.477 4.457-9.933 9.932-9.933 5.476 0 9.933 4.456 9.933 9.933a1.418 1.418 0 11-2.838 0 7.103 7.103 0 00-7.095-7.095 7.103 7.103 0 00-7.094 7.095 1.419 1.419 0 11-2.838 0z" fill="#fff"/></mask><g mask="url(#mask0)"><path fill="#C6C6C6" d="M.412.815h34.054v34.054H.412z"/></g></svg>