<svg width="17" height="17" fill="none" xmlns="http://www.w3.org/2000/svg"><path fill-rule="evenodd" clip-rule="evenodd" d="M4.675 2.833a1.843 1.843 0 00-1.842 1.842c0 5.233 4.258 9.492 9.492 9.492a1.844 1.844 0 001.827-2.074l-3.273-.751-.201.386c-.324.616-.557 1.064-1.154.824-2.341-.822-4.253-2.734-5.085-5.104-.253-.557.228-.809.839-1.127l.38-.2-.75-3.273a1.843 1.843 0 00-.233-.015zm7.65 12.75c-6.015 0-10.908-4.893-10.908-10.908A3.262 3.262 0 015.73 1.592a.71.71 0 01.458.512l.97 4.224a.707.707 0 01-.179.65c-.096.1-.098.102-.977.562a7.047 7.047 0 003.456 3.458c.46-.879.463-.881.564-.978a.715.715 0 01.649-.179l4.225.97c.237.054.43.227.51.457a3.23 3.23 0 01.176 1.057 3.262 3.262 0 01-3.258 3.258z" fill="#000"/><mask id="mask0" maskUnits="userSpaceOnUse" x="1" y="1" width="15" height="15"><path fill-rule="evenodd" clip-rule="evenodd" d="M4.675 2.833a1.843 1.843 0 00-1.842 1.842c0 5.233 4.258 9.492 9.492 9.492a1.844 1.844 0 001.827-2.074l-3.273-.751-.201.386c-.324.616-.557 1.064-1.154.824-2.341-.822-4.253-2.734-5.085-5.104-.253-.557.228-.809.839-1.127l.38-.2-.75-3.273a1.843 1.843 0 00-.233-.015zm7.65 12.75c-6.015 0-10.908-4.893-10.908-10.908A3.262 3.262 0 015.73 1.592a.71.71 0 01.458.512l.97 4.224a.707.707 0 01-.179.65c-.096.1-.098.102-.977.562a7.047 7.047 0 003.456 3.458c.46-.879.463-.881.564-.978a.715.715 0 01.649-.179l4.225.97c.237.054.43.227.51.457a3.23 3.23 0 01.176 1.057 3.262 3.262 0 01-3.258 3.258z" fill="#fff"/></mask><g mask="url(#mask0)"><path fill="#00AC4E" d="M0 0h17v17H0z"/></g></svg>