<svg width="38" height="30" fill="none" xmlns="http://www.w3.org/2000/svg"><path d="M30.888 23.02a3.353 3.353 0 000 6.704 3.354 3.354 0 000-6.705zm-22.567 0a3.353 3.353 0 000 6.704 3.354 3.354 0 000-6.705zM32.777 8.938a1.302 1.302 0 00-1.236-.892h-1.582v5.565h4.366l-1.548-4.673zm4.193 6.756h-7.01v5.324a5.44 5.44 0 016.327 4.772h.245c.718 0 1.301-.583 1.301-1.302v-7.57a1.3 1.3 0 00-.862-1.224z" fill="#00AC4E"/><path d="M27.826 1.891a1.3 1.3 0 00-1.3-1.302H1.422c-.718 0-1.3.583-1.3 1.302v22.597a1.3 1.3 0 001.3 1.302H2.92a5.44 5.44 0 015.399-4.854c2.797 0 5.106 2.13 5.397 4.854H25.49a5.44 5.44 0 012.387-3.937l-.05-19.962z" fill="#00AC4E"/></svg>