<svg width="39" height="13" fill="none" xmlns="http://www.w3.org/2000/svg"><path d="M1.691 10.786V2.96h5.535v1.174H2.921v2.013h3.41V7.32h-3.41v2.292h4.417v1.174H1.691zm6.938 0V5.42h1.118v4.305h1.957V5.42h1.118v4.305h1.957V5.42h1.118v4.305h.782v2.404h-1.118v-1.342H8.63zM21.762 9.11l.671.783a2.168 2.168 0 01-.559.503 3.069 3.069 0 01-1.733.503c-.783 0-1.446-.268-1.99-.805-.537-.544-.805-1.208-.805-1.99 0-.783.264-1.443.793-1.98a2.633 2.633 0 011.946-.816c.76 0 1.387.25 1.879.75.5.491.749 1.118.749 1.878 0 .067-.011.201-.034.403l-.022.156H18.52c.067.38.253.7.559.962.305.253.678.38 1.118.38.402 0 .783-.12 1.14-.358.164-.104.306-.227.425-.369zM18.52 7.544h3.019c-.09-.38-.258-.679-.504-.895-.245-.224-.562-.335-.95-.335-.79 0-1.312.41-1.565 1.23zm19.876.346a.559.559 0 000-.79l-3.558-3.558a.56.56 0 00-.79.79l3.162 3.163-3.162 3.163a.56.56 0 00.79.79l3.558-3.557zm-9.104.165h8.71V6.936h-8.71v1.119z" fill="#00AC4E"/></svg>