<svg width="15" height="17" fill="none" xmlns="http://www.w3.org/2000/svg"><path d="M8.778.445C8.405.388 8.033.426 7.661.47c-.01.001-.016.007-.025.008C4.369-.186 1.53 3.352.526 6.237c-1.29 3.7-.22 8.115 3.543 9.66 3.939 1.616 8.073-.97 9.772-4.723 1.928-4.26-.313-10.002-5.063-10.729zm4.509 10.394c-1.43 3.451-5.245 5.827-8.804 4.535C.808 14.04.032 9.857 1.167 6.42a9.152 9.152 0 012.694-4.025c1.237-1.07 2.712-1.363 4.257-1.374 4.618.192 6.867 5.72 5.169 9.818z" fill="#333"/><path d="M9.701 2.454c-.655-.222-1.355-.283-2.04-.27a.237.237 0 00-.136.046c-6.35-.51-8.392 11.343-1.678 12.636 3.308.637 5.966-1.79 6.855-4.942.805-2.855-.02-6.461-3-7.47zM7.055 14.347c-3.217.135-4.974-2.688-4.759-5.755.224-3.185 2.342-5.388 5.25-5.91a.25.25 0 00.115.03c6.954.116 5.592 11.375-.606 11.635z" fill="#333"/><path d="M4.102 10.614c-.061-.002-.088-.042-.134-.077a.223.223 0 00-.14-.046c-.05-.002-.065.087-.012.094.11.016.151.144.27.16.094.014.11-.13.016-.131z" fill="#333"/><path d="M12.049 7.506c-.049-.116-.185-.257-.263-.346-.129-.146-.098-.401-.15-.583-.038-.14-.142-.241-.252-.335.2-.22.252-.52-.031-.885-.122-.158-.504-.381-.545-.575-.04-.186-.058-.321-.172-.472-.19-.253-.777-.1-1.027-.136a.126.126 0 00-.13.067.743.743 0 00-.326-.253.116.116 0 00-.017-.043 2.327 2.327 0 00-1.154-.964c-.054-.022-.135.002-.172.047-.183.224-.2.418-.267.664-.203-.013-.471-.04-.623.072-.14.105-.088.334-.163.482-.01.018-.123.021-.252.037-.003-.03-.02-.06-.055-.069-.506-.13-1.184-.229-1.5.327-.163.29-.138.413-.47.48-.162.033-.257.16-.328.303-.227.457-.973.871-.871 1.466.01.054.027.1.047.144a.465.465 0 00-.176.105c-.158.162-.133.385-.065.586-.225.134-.442.335-.511.598-.078.292.353.343.505.441.122.08.251-.1.152-.204a.962.962 0 00-.14-.12.955.955 0 00-.129-.067.387.387 0 00-.029-.021 1.17 1.17 0 01.424-.414.164.164 0 00.07-.18c-.044-.159-.162-.358.04-.416.043-.013.087-.023.13-.033.239.119.562.12.82.07.023.074.051.148.088.224.049.1.187.108.26.034a.93.93 0 01.253-.174l.004-.001c-.12.214-.245.42-.328.646-.489-.239-1.025-.126-1.244.54-.059.178-.297.324-.403.487a1.08 1.08 0 00-.16.586c0 .324.212.555.473.682a.71.71 0 00-.097.197c-.078.258.044.514.25.659.134.093.29.122.445.109-.053.255-.155.53-.084.776.07.247.35.267.582.25-.043.546.097 1.158.637 1.378.43.175.86-.016 1.155-.348.018.014.035.03.057.041.248.136.53.037.777-.107.055.165.219.295.549.344.697.105.849-.396.73-.897.16.235.411.382.766.341.499-.057.563-.502.827-.827.07-.085.172-.103.235-.202.058-.092.03-.223-.01-.34.388-.016.636-.277.85-.66.035-.061-.008-.164-.085-.155-.12.014-.176.053-.255.154-.213.276-.326.42-.703.382-.08-.009-.154.093-.126.17.09.247.095.277-.083.413-.164.125-.234.382-.37.53-.25.274-.546.24-.79 0-.231-.23-.256-.611-.212-.932.765-.057 1.475-.695 1.774-1.463.07.017.153.012.218.015.146.008.183-.174.114-.266.031-.105-.1-.212-.199-.123-.008.008-.019.013-.028.02a1.767 1.767 0 00-.125-1.144.19.19 0 00.011-.066c-.013-.435.197-.661-.039-1.082-.01-.016-.025-.027-.039-.04.109-.146.228-.253.328-.366-.034.048-.04.112.017.168l.036.027c.022.08-.005.198-.017.265-.019.106-.048.21-.055.318-.005.077.064.135.132.138.228.008.457.006.685.006a.142.142 0 00.139-.144c-.006-.116-.119-.368-.04-.465a.172.172 0 00.035-.141c.005.008.01.016.018.023.508.467.473.987-.108 1.412-.098.071-.125.205-.038.3.24.26.082.51-.06.726-.092-.047-.188-.09-.284-.139-.065-.032-.163-.024-.198.054-.09.205-.11.508-.25.68-.12.145.082.357.203.21.143-.174.178-.4.248-.612.053.026.104.053.154.08.004.137.158.232.265.18.01.008.02.014.029.023-.033.168-.088.341-.277.338-.156-.003-.304-.023-.447.058-.124.07-.04.286.096.238.119-.043.255.013.377.014.156.002.3-.07.392-.202.123-.18.245-.492.073-.663-.026-.027-.055-.047-.083-.07.2-.398.387-.583.138-1.011.423-.366.695-.774.447-1.37zM9.544 6.28c.019-.434.116-.859.161-1.29.159.115.305.25.381.438.105.26.067.578.028.856-.18.036-.347-.016-.536-.007-.013 0-.024.004-.035.007V6.28zM6.84 4.614c.061.007.118-.039.15-.088a.981.981 0 00.17-.474l.001-.008c.154-.033.355-.005.5-.006.08-.001.13-.054.159-.125.046-.117.085-.583.333-.467.284.133.519.337.722.576a.534.534 0 00-.113.086 1.11 1.11 0 00-.294.563c-.02-.05-.069-.09-.122-.09-.235.002-.49-.044-.72.004-.082.017-.111.11-.088.183.036.223-.05.45-.001.668.066.293.449.29.672.291.048 0 .11-.029.13-.077.095-.232.062-.474.094-.709-.017.329.048.675.136.97-.231.105-.586.29-.567.557.019.252.205.393.4.512-.099.027-.198.049-.297.027a.12.12 0 00-.087.013c-.219-.227-.712-.667-1.027-.391a.464.464 0 00-.107.142c-.047-.022-.097-.05-.145-.06.004-.033-.035-.058-.063-.033-.02.019-.031.044-.051.06-.006.005-.008.012-.012.017.107-.445.21-.903.187-1.326-.005-.098-.13-.14-.18-.051a1.96 1.96 0 00-.132.286.06.06 0 00-.059-.031c-.328.023-.73.276-.773.643-.043.348.241.63.532.764-.009.054-.017.109-.027.162-.477-.15-.815-.493-.631-1.064.18-.558.78-.866 1.31-.88.119-.003.155-.203.03-.223a1.681 1.681 0 00-.495 0c.068-.245.01-.468.465-.42zm1.317.249a1.003 1.003 0 00-.026.16c-.01.133.002.263-.03.39a.598.598 0 01-.238-.037c-.038-.017-.034-.025-.036-.077-.007-.146.001-.285-.01-.426.112.004.226-.004.34-.01zm-1.72.939a6.547 6.547 0 00-.211 1.002c-.137-.134-.27-.277-.286-.483-.02-.27.313-.398.497-.519zm-1.875.72c-.113-.026-.237.055-.233.184.003.104.013.202.027.297-.127-.002-.274-.003-.402-.035-.009-.063-.053-.12-.126-.114l-.08.006a.289.289 0 01-.07-.102c-.1-.261.414-.632.567-.756.128-.104.206-.377.283-.529.053-.103.347-.12.444-.144.057-.014.12-.07.13-.133.104-.66.557-.82 1.098-.826a.207.207 0 00-.067.063c-.129.209-.116.466-.13.705-.374.157-.682.46-.841.895-.07.192-.087.372-.064.536-.179-.008-.365-.008-.536-.047zm.17.622a1.328 1.328 0 01-.035-.276c.158-.02.323-.018.479-.028.024.052.052.102.084.15-.17-.026-.366.051-.528.154zm.312.878c.077-.248.2-.463.259-.718.002-.01.001-.019.001-.028.03-.01.06-.024.087-.042a.12.12 0 00.04-.045c.216.205.51.343.817.396.084.014.19-.022.207-.122.036-.2.086-.409.137-.62a.12.12 0 00.032.072c.055.05.12.091.191.124-.015.248.06.53.12.747-.245.217-.536.546-.47.898.062.321.31.45.585.507a1.11 1.11 0 00-.292.36c-.323 0-.605-.008-.934-.164-.123-.058-.226-.11-.26-.206.004-.01.009-.02.012-.032.015-.043.005-.077-.018-.1.002-.01.002-.017.005-.027.043-.167.08-.297.092-.47.007-.1-.089-.197-.184-.191-.124.007-.253.007-.341-.033a1.694 1.694 0 00-.085-.081c-.026-.052-.032-.122 0-.225zM6.1 10.9c-.05.018-.099.04-.149.066-.118-.042-.238-.081-.35-.135-.264-.124-.09-.442-.004-.642.033-.076.02-.16-.052-.206-.209-.135-.369-.252-.181-.48l.009-.012c.394.232.838.452 1.285.414-.02.235.041.477.158.702-.074.008-.156-.006-.222-.012-.107-.008-.198.013-.301.024-.106.011-.198.084-.197.204 0 .027.003.05.004.077zm.39.023l.027-.007c.148-.03.308-.012.442-.077.038.053.08.103.123.152-.218-.004-.348.263-.543.343a.937.937 0 01-.042-.202 2.87 2.87 0 01-.009-.195l.002-.014zm-2.577.006a.396.396 0 01-.196-.06.241.241 0 01-.104-.124c.01.022-.011-.06-.01-.043a.397.397 0 01.002-.066c-.004.042.009-.027.011-.036l.003-.01.007-.014a.638.638 0 01.143-.206c.083-.086.176-.159.272-.227.007.02.02.036.042.04.106.025.199.016.305.01a.305.305 0 01.234.095c-.096.24-.232.464-.46.586a.478.478 0 01-.25.055zm2.135 2.01c-.192.267-.42.491-.782.39-.455-.126-.509-.799-.454-1.182.014-.099-.042-.236-.162-.22-.194.025-.478.11-.467-.166.007-.186.032-.368.034-.554l.047-.019c.345-.152.552-.542.657-.895.013-.045 0-.109-.036-.14-.123-.106-.249-.187-.412-.193a.881.881 0 00-.276.049c.025-.073-.033-.166-.122-.141a1.57 1.57 0 00-.526.241c-.236-.167-.4-.374-.33-.694.07-.319.376-.473.499-.752.108-.247.256-.481.539-.499a.687.687 0 01.367.098 1.389 1.389 0 00-.02.148c-.005.058.037.14.09.163.195.087.37.125.563.149-.039.18-.094.347-.095.54v.003a.927.927 0 00-.204.364c-.057.234.149.41.328.537-.112.246-.217.559-.04.78.105.132.253.189.41.221-.171.152-.298.345-.297.56.003.455.385.643.752.757a1.318 1.318 0 00-.063.456zm1.783.316c-.02-.034-.036-.071-.031-.102a.926.926 0 00.01-.147c.058-.015.056-.113-.012-.113l-.004.002c-.058-.137-.266-.119-.28.057-.01.1.017.201.063.292-.12-.038-.15-.13-.13-.244a.092.092 0 00.015-.058c.067-.225.29-.515.432-.688.178.342.477.931-.063 1.001zm.351-.998a1.328 1.328 0 00-.173-.234c-.064-.068-.155-.02-.174.053-.312.172-.65.539-.745.872a2.18 2.18 0 01-.458.072.224.224 0 01-.148-.043c.042-.086.077-.174.102-.264.036-.134-.069-.212-.171-.201l.014-.088c.013-.08-.019-.157-.099-.181-.237-.07-.761-.265-.615-.616.077-.185.25-.303.42-.414.028.138.074.27.148.408.027.05.09.094.146.087a.796.796 0 00.42-.19c.114-.092.3-.216.363-.352.005-.012.005-.023.007-.035.048.044.096.086.147.124.267.203.548.303.826.323a1.67 1.67 0 00-.01.679zM9.72 8.489c.661 1.413-.926 3.558-2.265 2.209-.4-.404-.365-.759-.118-1.062.237.624.8 1.074 1.48.834.76-.269.954-1.243.772-1.96a.152.152 0 00-.052-.084c.008-.065-.04-.136-.123-.117-.238.053-.48.104-.722.162-.123-.156-.105-.41-.19-.588-.115-.244-.379-.17-.587-.092a.97.97 0 00-.322.19c-.091.087-.087.164-.056.284.025.097.087.18.148.255.05.062.137.12.152.201l.005.012a3.273 3.273 0 00-.56.29c-.002 0-.003-.002-.005-.003-.217-.07-.541-.183-.493-.48.04-.241.275-.432.442-.582.041-.038.054-.106.04-.16-.055-.207-.115-.45-.11-.677a.86.86 0 00.261-.02c.056-.013.081-.063.079-.114.163.1.333.24.37.267a.113.113 0 00.147-.01c.008.005.015.01.026.014.113.032.223.04.34.02.279-.047.446-.115.493.28.011.093.064.158.158.164.283.018.568.012.85.01.065.177.03.341-.013.515-.102-.007-.2.127-.147.242zm-.427.085c0 .007-.002.013 0 .02.084.578.039 1.292-.563 1.553-.546.237-.965-.25-1.194-.71.474-.4 1.277-.69 1.757-.863zm-1.262.09c-.024-.178-.18-.295-.214-.47a1.1 1.1 0 01.48-.223c.101.16.101.377.184.553a5.91 5.91 0 00-.45.14zm1.644-1.355a.206.206 0 00-.03.074c-.166 0-.332.001-.498.008-.059-.198-.137-.38-.347-.45a.353.353 0 00-.105-.015c-.002-.003-.003-.006-.006-.008-.118-.12-.241-.238-.332-.382-.07-.11.419-.367.476-.403.075-.048.09-.137.054-.216a1.92 1.92 0 01-.077-1.355c.167-.525.458-.251.656.06a.15.15 0 00-.039.097c0 .524-.089 1.04-.09 1.562 0 .073.056.106.11.102a.165.165 0 00.06.165c.178.14.46.14.682.08-.05.283-.365.458-.514.681zm.7-2.006c-.13-.307-.384-.503-.651-.674a2.537 2.537 0 00-.117-.208c.422.048.99-.121.893.533-.012.085.008.16.082.209.221.142.409.29.546.522.092.155.067.262-.014.337-.063-.014-.136.025-.15.088-.163.063-.378.08-.51.087.03-.3.039-.616-.079-.894zm.304 2.399c.015-.118.038-.241.035-.358l.062.005c.063.003.176-.016.261-.003-.023.114.004.23.026.352-.128 0-.256.001-.384.004zm.653-.512c-.004-.006-.007-.013-.013-.019-.099-.087-.213-.107-.34-.113-.086-.004-.273.034-.347-.025a.142.142 0 00-.184.003.682.682 0 00.173-.416c.177-.032.356-.094.51-.181.127.16.246.288.197.646a.258.258 0 00.004.105z" fill="#333"/></svg>