<svg width="17" height="11" fill="none" xmlns="http://www.w3.org/2000/svg"><path d="M16.058 7.04a10.575 10.575 0 00-1.769-2.432 2.731 2.731 0 00-.68-1.52 4.107 4.107 0 00-2.497-1.302c-.007-.01-.01-.02-.017-.03A1.86 1.86 0 009.58.98H6.857a1.86 1.86 0 00-1.515.775c-.007.01-.01.02-.017.03A4.106 4.106 0 002.828 3.09a2.73 2.73 0 00-.68 1.517A10.524 10.524 0 00.396 7.01a2.356 2.356 0 00.03 2.454c.429.685 1.236 1.09 2.052 1.09.28 0 .562-.047.83-.148l2.584-1.034c.329.104.67.168 1.019.168.062 0 .125-.015.187-.018a1.47 1.47 0 002.246 0c.059.003.118.017.176.017.347 0 .687-.065 1.018-.17l2.61 1.044c.268.098.547.144.824.144.812 0 1.607-.402 2.039-1.093a2.34 2.34 0 00.047-2.423zm-9.941.976a2.061 2.061 0 01-.209-.105 1.828 1.828 0 01-.217-.14c-.039-.03-.08-.054-.117-.086l-.265-.275-1.447-1.508c-.041-.044-.074-.092-.11-.14-.017-.024-.04-.046-.056-.07-.024-.04-.041-.082-.062-.122-.02-.038-.043-.074-.058-.114-.014-.037-.023-.075-.033-.113-.015-.047-.032-.093-.04-.142-.007-.03-.007-.061-.01-.093a1.265 1.265 0 01-.015-.175c.001-.334.118-.668.357-.932a2.723 2.723 0 011.158-.752c.012.068.03.135.05.202.007.026.007.052.015.077l1.47 4.619a2.03 2.03 0 01-.411-.13zm6.828-2.908c-.004.032-.004.063-.01.093-.01.05-.026.096-.04.143-.012.037-.02.075-.034.112-.017.043-.041.082-.062.123-.02.037-.035.076-.058.112a1.38 1.38 0 01-.166.21l-1.7 1.773c-.12.104-.252.186-.39.259-.038.02-.077.041-.117.06a2.05 2.05 0 01-.456.15l1.467-4.615c.008-.025.008-.05.014-.074.02-.068.04-.136.05-.205.442.147.845.405 1.159.752.239.264.356.598.357.932 0 .06-.007.118-.014.175z" fill="#333"/></svg>