<svg width="19" height="17" fill="none" xmlns="http://www.w3.org/2000/svg"><path d="M5.542 5.954a.301.301 0 10.427-.427.788.788 0 010-1.112c.263-.263.408-.612.408-.984 0-.371-.144-.72-.408-.983a.302.302 0 10-.427.427.782.782 0 010 1.113 1.393 1.393 0 000 1.966zm6.646 0a.301.301 0 10.427-.427.788.788 0 010-1.112c.262-.263.407-.612.407-.984 0-.371-.144-.72-.407-.983a.302.302 0 10-.428.427.782.782 0 010 1.113 1.393 1.393 0 000 1.966zM8.865 4.142a.301.301 0 00.427 0 .302.302 0 000-.427.788.788 0 010-1.112c.263-.263.408-.612.408-.984 0-.371-.145-.72-.408-.983a.302.302 0 10-.427.427.782.782 0 010 1.113 1.393 1.393 0 000 1.966zm-1.21 4.17a.315.315 0 00.067-.007 6.084 6.084 0 011.336-.147h.003a.302.302 0 100-.605h-.004c-.496 0-.99.055-1.468.163a.302.302 0 00.066.596zm-4.688 4.976a.302.302 0 00.351-.242c.314-1.722 1.35-3.253 2.774-4.097a.302.302 0 00-.307-.52c-1.572.932-2.716 2.617-3.061 4.507a.301.301 0 00.243.352z" fill="#333"/><path d="M16.8 12.877a7.872 7.872 0 00-6.24-6.387c.005-.048.013-.097.013-.145a1.511 1.511 0 00-3.02 0c0 .048.007.097.012.145a7.872 7.872 0 00-6.242 6.387C.69 13.234 0 13.76 0 14.35c0 1.536 4.685 2.567 9.061 2.567s9.062-1.032 9.062-2.567c0-.59-.69-1.116-1.322-1.473zm-8.643-6.48a.907.907 0 111.81-.052l-.001.052-.043-.003a7.645 7.645 0 00-.313-.027c-.039-.003-.077-.007-.116-.009a7.894 7.894 0 00-.865 0c-.039.002-.077.006-.116.009-.105.007-.21.016-.313.027l-.043.003zm-.183.634a7.36 7.36 0 01.489-.055l.1-.007c.332-.023.665-.023.997 0l.1.007c.164.013.327.031.49.055a7.266 7.266 0 016.121 6.428l.011.1c.012.134.02.268.025.402a32.232 32.232 0 01-14.49 0c.004-.134.012-.268.024-.402l.011-.1A7.264 7.264 0 017.974 7.03zm1.087 9.282c-5.163 0-8.457-1.29-8.457-1.963 0-.116.143-.371.624-.704-.002.018-.001.035-.002.052-.01.165-.018.332-.018.5v.239l.232.056c2.493.598 5.057.897 7.621.897s5.129-.3 7.622-.898l.232-.055v-.238c0-.169-.008-.335-.018-.501-.001-.017 0-.034-.002-.052.48.333.624.588.624.704 0 .674-3.294 1.963-8.458 1.963z" fill="#333"/></svg>