<svg width="17" height="16" fill="none" xmlns="http://www.w3.org/2000/svg"><path d="M15.33 7.268H.793a.727.727 0 00-.727.727A7.997 7.997 0 003.868 14.8a.727.727 0 00.56 1.19h7.268a.727.727 0 00.559-1.19 7.997 7.997 0 003.802-6.805.727.727 0 00-.727-.727z" fill="#333"/><path d="M13.559 8.417H2.846a.525.525 0 00-.535.514c0 2.033 1.121 3.818 2.801 4.816a.5.5 0 00-.123.328c0 .284.24.514.535.514h5.357c.296 0 .535-.23.535-.514a.5.5 0 00-.123-.328c1.68-.998 2.802-2.783 2.802-4.816a.525.525 0 00-.536-.514z" fill="#fff"/><path d="M5.183.213a.727.727 0 00-1.028 0c-.396.397-.94.94-.94 1.967 0 1.028.544 1.572.94 1.968.357.357.514.531.514.94a.727.727 0 001.454 0c0-1.028-.543-1.571-.94-1.968-.356-.356-.514-.53-.514-.94 0-.408.158-.583.514-.94a.727.727 0 000-1.027zm3.392 0a.727.727 0 00-1.028 0c-.396.396-.94.94-.94 1.967 0 1.028.544 1.572.94 1.968.357.357.514.531.514.94a.727.727 0 001.454 0c0-1.028-.543-1.571-.94-1.968-.356-.356-.514-.53-.514-.94 0-.408.158-.583.514-.94a.727.727 0 000-1.027zm3.392 0a.727.727 0 00-1.028 0c-.396.396-.94.94-.94 1.967 0 1.028.544 1.572.94 1.968.357.357.514.531.514.94a.727.727 0 101.454 0c0-1.028-.543-1.571-.94-1.968-.356-.356-.514-.53-.514-.94 0-.408.158-.583.514-.94a.727.727 0 000-1.027z" fill="#333"/></svg>